<?xml version="1.0" encoding="UTF-8" standalone="no"?><!DOCTYPE svg PUBLIC "-//W3C//DTD SVG 1.1//EN" "http://www.w3.org/Graphics/SVG/1.1/DTD/svg11.dtd"><svg width="100%" height="100%" viewBox="0 0 750 500" version="1.1" xmlns="http://www.w3.org/2000/svg" xmlns:xlink="http://www.w3.org/1999/xlink" xml:space="preserve" xmlns:serif="http://www.serif.com/" style="fill-rule:evenodd;clip-rule:evenodd;stroke-miterlimit:10;"><rect id="Page-1" serif:id="Page 1" x="0" y="0" width="750" height="500" style="fill:none;"/><g id="OBJECT"><path d="M244.039,118.606c0,0 -5.099,94.389 27.821,133.711" style="fill:none;fill-rule:nonzero;stroke:#43562d;stroke-width:1.34px;"/><path d="M256.129,106.769c0,0 2.588,-8.081 -0.373,-18.686" style="fill:none;fill-rule:nonzero;stroke:#43562d;stroke-width:1.34px;"/><path d="M258.636,86.831c0.691,1.59 -0.037,3.44 -1.627,4.132c-1.591,0.692 -3.44,-0.037 -4.132,-1.627c-0.692,-1.59 0.036,-3.441 1.627,-4.132c1.59,-0.692 3.441,0.037 4.132,1.627" style="fill:#86bcc4;fill-rule:nonzero;"/><path d="M256.747,85.115c0.141,0.189 0.267,0.392 0.364,0.617c0.693,1.591 -0.036,3.44 -1.627,4.132c-0.74,0.322 -1.533,0.325 -2.243,0.088c0.851,1.146 2.402,1.604 3.768,1.01c1.59,-0.692 2.318,-2.541 1.627,-4.132c-0.37,-0.85 -1.074,-1.443 -1.889,-1.715" style="fill:#72a4af;fill-rule:nonzero;"/><path d="M258.331,110.353c0,0 5.111,-6.773 5.819,-17.761" style="fill:none;fill-rule:nonzero;stroke:#43562d;stroke-width:1.34px;"/><path d="M267.282,92.361c0.128,1.729 -1.171,3.235 -2.9,3.362c-1.73,0.128 -3.236,-1.171 -3.363,-2.9c-0.128,-1.73 1.171,-3.235 2.901,-3.363c1.729,-0.127 3.234,1.171 3.362,2.901" style="fill:#86bcc4;fill-rule:nonzero;"/><path d="M266.066,90.119c0.07,0.225 0.122,0.458 0.141,0.703c0.127,1.729 -1.171,3.235 -2.901,3.362c-0.805,0.06 -1.555,-0.199 -2.147,-0.658c0.425,1.363 1.738,2.308 3.222,2.198c1.73,-0.127 3.029,-1.633 2.901,-3.363c-0.069,-0.924 -0.537,-1.716 -1.216,-2.242" style="fill:#72a4af;fill-rule:nonzero;"/><path d="M240.214,99.316c0,0 2.588,-8.081 -0.372,-18.686" style="fill:none;fill-rule:nonzero;stroke:#43562d;stroke-width:1.34px;"/><path d="M242.721,79.377c0.692,1.59 -0.036,3.44 -1.627,4.132c-1.59,0.692 -3.44,-0.036 -4.132,-1.627c-0.691,-1.59 0.037,-3.44 1.627,-4.132c1.591,-0.691 3.441,0.037 4.132,1.627" style="fill:#86bcc4;fill-rule:nonzero;"/><path d="M240.833,77.662c0.14,0.189 0.267,0.392 0.364,0.617c0.692,1.591 -0.037,3.44 -1.627,4.132c-0.74,0.322 -1.534,0.325 -2.244,0.088c0.852,1.146 2.403,1.604 3.768,1.01c1.591,-0.692 2.319,-2.542 1.627,-4.132c-0.369,-0.85 -1.074,-1.443 -1.888,-1.715" style="fill:#72a4af;fill-rule:nonzero;"/><path d="M241.027,101.415c0,0 5.333,-6.601 6.402,-17.559" style="fill:none;fill-rule:nonzero;stroke:#43562d;stroke-width:1.34px;"/><path d="M250.567,83.728c0.07,1.733 -1.277,3.195 -3.01,3.266c-1.732,0.07 -3.194,-1.277 -3.265,-3.01c-0.071,-1.733 1.277,-3.195 3.009,-3.266c1.733,-0.07 3.195,1.277 3.266,3.01" style="fill:#86bcc4;fill-rule:nonzero;"/><path d="M249.426,81.447c0.062,0.227 0.107,0.461 0.117,0.707c0.07,1.733 -1.277,3.195 -3.01,3.265c-0.806,0.033 -1.547,-0.25 -2.124,-0.728c0.38,1.376 1.662,2.363 3.149,2.303c1.732,-0.071 3.08,-1.533 3.01,-3.266c-0.038,-0.926 -0.481,-1.733 -1.142,-2.281" style="fill:#72a4af;fill-rule:nonzero;"/><path d="M231.682,106.646c0,0 2.588,-8.081 -0.372,-18.686" style="fill:none;fill-rule:nonzero;stroke:#43562d;stroke-width:1.34px;"/><path d="M234.188,86.708c0.692,1.59 -0.036,3.44 -1.627,4.132c-1.59,0.691 -3.44,-0.037 -4.132,-1.627c-0.691,-1.59 0.037,-3.441 1.627,-4.132c1.591,-0.692 3.441,0.037 4.132,1.627" style="fill:#86bcc4;fill-rule:nonzero;"/><path d="M232.301,84.992c0.14,0.189 0.266,0.392 0.364,0.617c0.692,1.591 -0.037,3.44 -1.627,4.132c-0.741,0.322 -1.534,0.325 -2.244,0.088c0.851,1.146 2.403,1.604 3.768,1.01c1.591,-0.692 2.319,-2.542 1.627,-4.132c-0.369,-0.85 -1.074,-1.443 -1.888,-1.715" style="fill:#72a4af;fill-rule:nonzero;"/><path d="M228.592,110.353c0,0 0.475,-8.472 -5.057,-17.993" style="fill:none;fill-rule:nonzero;stroke:#43562d;stroke-width:1.34px;"/><path d="M226.008,90.424c1.069,1.365 0.829,3.339 -0.536,4.408c-1.366,1.069 -3.34,0.829 -4.409,-0.536c-1.069,-1.366 -0.828,-3.339 0.537,-4.409c1.365,-1.069 3.339,-0.829 4.408,0.537" style="fill:#86bcc4;fill-rule:nonzero;"/><path d="M223.749,89.239c0.184,0.147 0.356,0.312 0.508,0.505c1.069,1.366 0.829,3.34 -0.536,4.409c-0.636,0.498 -1.404,0.7 -2.151,0.649c1.113,0.895 2.729,0.948 3.902,0.031c1.365,-1.07 1.605,-3.043 0.536,-4.408c-0.572,-0.73 -1.403,-1.127 -2.259,-1.186" style="fill:#72a4af;fill-rule:nonzero;"/><path d="M234.958,108.137c-10.647,-14.511 -20.185,-7.526 -20.185,-7.526c0,0 -10.208,5.959 -1.148,21.511c9.059,15.553 30.485,23.242 30.485,23.242c0,0 1.496,-22.716 -9.152,-37.227" style="fill:#72a4af;fill-rule:nonzero;"/><path d="M233.578,113.817c-4.39,-6.281 2.604,8.681 4.83,16.926c2.227,8.244 -3.176,-3.044 -8.677,-11.124c-5.501,-8.08 -6.775,-6.527 -6.775,-6.527c0,0 -1.933,0.549 3.282,8.817c5.216,8.267 13.412,17.724 6.74,12.393c-6.672,-5.33 -17.603,-17.711 -13.594,-11.18c4.007,6.53 12.309,15.8 24.726,22.241c-0.953,-13.956 -6.142,-25.266 -10.532,-31.546" style="fill:#8bc0c9;fill-rule:nonzero;"/><path d="M253.264,108.137c10.647,-14.511 20.185,-7.526 20.185,-7.526c0,0 10.208,5.959 1.148,21.511c-9.06,15.553 -30.486,23.242 -30.486,23.242c0,0 -1.495,-22.716 9.153,-37.227" style="fill:#72a4af;fill-rule:nonzero;"/><path d="M254.643,113.817c4.39,-6.281 -2.604,8.681 -4.83,16.926c-2.227,8.244 3.176,-3.044 8.677,-11.124c5.501,-8.08 6.775,-6.527 6.775,-6.527c0,0 1.933,0.549 -3.282,8.817c-5.216,8.267 -13.412,17.724 -6.74,12.393c6.672,-5.33 17.603,-17.711 13.594,-11.18c-4.007,6.53 -12.309,15.8 -24.727,22.241c0.954,-13.956 6.143,-25.266 10.533,-31.546" style="fill:#8bc0c9;fill-rule:nonzero;"/><path d="M256.865,109.213c-0.95,-17.974 -12.755,-17.361 -12.755,-17.361c0,0 -11.804,-0.613 -12.754,17.361c-0.95,17.973 12.754,36.151 12.754,36.151c0,0 13.705,-18.178 12.755,-36.151" style="fill:#72a4af;fill-rule:nonzero;"/><path d="M252.597,113.206c-0.228,-7.659 -2.582,8.688 -5.239,16.804c-2.658,8.116 -0.988,-4.287 -1.158,-14.06c-0.171,-9.774 -2.089,-9.174 -2.089,-9.174c0,0 -1.917,-0.6 -2.088,9.174c-0.171,9.773 1.5,22.176 -1.158,14.06c-2.659,-8.116 -5.012,-24.463 -5.241,-16.804c-0.227,7.659 1.633,19.963 8.487,32.158c6.853,-12.195 8.715,-24.499 8.486,-32.158" style="fill:#8bc0c9;fill-rule:nonzero;"/><path d="M256.865,109.213c-0.95,-17.974 -12.755,-17.361 -12.755,-17.361c0,0 -11.804,-0.613 -12.754,17.361c-0.95,17.973 12.754,36.151 12.754,36.151c0,0 13.705,-18.178 12.755,-36.151" style="fill:#86bcc4;fill-rule:nonzero;"/><path d="M252.597,113.206c-0.228,-7.659 -2.582,8.688 -5.239,16.804c-2.658,8.116 -0.988,-4.287 -1.158,-14.06c-0.171,-9.774 -2.089,-9.174 -2.089,-9.174c0,0 -1.917,-0.6 -2.088,9.174c-0.171,9.773 1.5,22.176 -1.158,14.06c-2.659,-8.116 -5.012,-24.463 -5.241,-16.804c-0.227,7.659 1.633,19.963 8.487,32.158c6.853,-12.195 8.715,-24.499 8.486,-32.158" style="fill:#a2d6db;fill-rule:nonzero;"/><path d="M239.839,135.668c-4.969,-6.772 -9.42,-3.513 -9.42,-3.513c0,0 -4.764,2.782 -0.536,10.04c4.228,7.258 14.227,10.847 14.227,10.847c0,0 0.699,-10.602 -4.271,-17.374" style="fill:#759154;fill-rule:nonzero;"/><path d="M248.382,135.668c4.97,-6.772 9.421,-3.513 9.421,-3.513c0,0 4.764,2.782 0.536,10.04c-4.228,7.258 -14.228,10.847 -14.228,10.847c0,0 -0.698,-10.602 4.271,-17.374" style="fill:#759154;fill-rule:nonzero;"/><path d="M239.839,135.668c-4.969,-6.772 -9.42,-3.513 -9.42,-3.513c0,0 -4.764,2.782 -0.536,10.04c4.228,7.258 14.227,10.847 14.227,10.847c0,0 0.699,-10.602 -4.271,-17.374" style="fill:#759154;fill-rule:nonzero;"/><path d="M248.382,135.668c4.97,-6.772 9.421,-3.513 9.421,-3.513c0,0 4.764,2.782 0.536,10.04c-4.228,7.258 -14.228,10.847 -14.228,10.847c0,0 -0.698,-10.602 4.271,-17.374" style="fill:#759154;fill-rule:nonzero;"/><path d="M250.063,136.17c-0.443,-8.388 -5.953,-8.102 -5.953,-8.102c0,0 -5.509,-0.286 -5.952,8.102c-0.444,8.388 5.952,16.872 5.952,16.872c0,0 6.396,-8.484 5.953,-16.872" style="fill:#759154;fill-rule:nonzero;"/><path d="M257.803,132.155c0,0 -3.64,-2.638 -8.01,1.854c-0.928,-4.794 -3.851,-5.721 -5.101,-5.898c0.198,0.113 5.879,3.585 -0.581,24.931c0,0 10,-3.589 14.228,-10.847c4.228,-7.259 -0.536,-10.04 -0.536,-10.04" style="fill:#59723f;fill-rule:nonzero;"/><path d="M194.851,143.81c0,0 15.354,17.225 24.963,21.489c4.733,2.101 13.97,3.961 21.702,8.069c0,0 -4.227,-11.918 -15.089,-19.904c-5.802,-4.267 -19.822,-9.055 -31.576,-9.654" style="fill:#759154;fill-rule:nonzero;"/><path d="M241.276,173.246c-4.632,-4.697 -11.58,-11.012 -18.355,-14.37c-10.287,-5.098 -16.938,-7.378 -28.071,-15.067c0,0 15.355,17.226 24.963,21.49c4.686,2.079 13.779,3.926 21.463,7.947" style="fill:#59723f;fill-rule:nonzero;"/><path d="M194.851,143.81c4.522,2.748 9.13,5.297 13.88,7.546c4.745,2.256 9.617,4.304 14.374,6.654c2.423,1.191 4.696,2.65 6.863,4.216c2.152,1.59 4.18,3.326 6.146,5.117c3.888,3.63 7.459,7.578 10.627,11.823c-3.73,-3.753 -7.598,-7.334 -11.587,-10.737c-2.003,-1.694 -4.072,-3.295 -6.179,-4.829c-2.132,-1.502 -4.337,-2.861 -6.632,-4.05l-7.102,-3.468c-2.379,-1.146 -4.754,-2.322 -7.09,-3.584c-4.685,-2.501 -9.131,-5.436 -13.3,-8.688" style="fill:#43562d;fill-rule:nonzero;"/><path d="M192.456,177.755c0,0 18.701,20.98 30.404,26.174c5.766,2.558 17.015,4.823 26.433,9.827c0,0 -5.149,-14.516 -18.378,-24.243c-7.066,-5.196 -24.144,-11.028 -38.459,-11.758" style="fill:#759154;fill-rule:nonzero;"/><path d="M249.002,213.608c-5.642,-5.721 -14.105,-13.412 -22.356,-17.502c-12.53,-6.21 -20.63,-8.986 -34.19,-18.351c0,0 18.701,20.98 30.404,26.174c5.707,2.532 16.784,4.781 26.142,9.679" style="fill:#59723f;fill-rule:nonzero;"/><path d="M192.456,177.755c5.509,3.347 11.12,6.452 16.906,9.191c5.779,2.748 11.714,5.242 17.507,8.104c5.936,2.891 11.077,7.002 15.845,11.367c4.743,4.414 9.086,9.23 12.942,14.401c-2.283,-2.276 -4.568,-4.533 -6.937,-6.699c-2.346,-2.186 -4.731,-4.324 -7.175,-6.38c-4.88,-4.104 -9.986,-7.98 -15.603,-10.812l-8.65,-4.225c-2.898,-1.395 -5.791,-2.828 -8.636,-4.364c-5.706,-3.048 -11.121,-6.622 -16.199,-10.583" style="fill:#43562d;fill-rule:nonzero;"/><path d="M281.207,141.484c0,0 -6.649,22.096 -13.561,30.018c-3.404,3.902 -10.992,9.485 -16.268,16.474c0,0 -1.198,-12.589 5.277,-24.413c3.46,-6.317 14.15,-16.575 24.552,-22.079" style="fill:#759154;fill-rule:nonzero;"/><path d="M251.543,187.765c2.217,-6.213 5.852,-14.871 10.576,-20.774c7.173,-8.964 12.24,-13.837 19.088,-25.507c0,0 -6.649,22.096 -13.56,30.018c-3.371,3.862 -10.835,9.374 -16.104,16.263" style="fill:#59723f;fill-rule:nonzero;"/><path d="M281.207,141.484c-2.406,4.708 -5.199,9.245 -8.39,13.49c-1.585,2.13 -3.242,4.198 -4.915,6.241l-4.974,6.142c-1.579,2.046 -3.005,4.209 -4.303,6.47c-1.264,2.28 -2.464,4.605 -3.564,6.986c-2.181,4.769 -4.175,9.648 -5.973,14.625c1.081,-5.185 2.651,-10.272 4.643,-15.204c1.028,-2.454 2.133,-4.883 3.413,-7.233c1.303,-2.334 2.75,-4.617 4.442,-6.719c3.32,-4.138 6.874,-8.051 10.224,-12.099c3.357,-4.044 6.458,-8.299 9.397,-12.699" style="fill:#43562d;fill-rule:nonzero;"/><path d="M296.255,161.488c0,0 -7.96,26.45 -16.232,35.932c-4.077,4.672 -13.16,11.356 -19.475,19.72c0,0 -1.435,-15.069 6.317,-29.223c4.142,-7.561 16.938,-19.841 29.39,-26.429" style="fill:#759154;fill-rule:nonzero;"/><path d="M260.746,216.888c2.652,-7.437 7.004,-17.801 12.659,-24.868c8.587,-10.73 14.653,-16.563 22.85,-30.532c0,0 -7.96,26.45 -16.233,35.932c-4.034,4.624 -12.969,11.222 -19.276,19.468" style="fill:#59723f;fill-rule:nonzero;"/><path d="M296.255,161.488c-2.881,5.635 -6.224,11.066 -10.043,16.148c-1.897,2.549 -3.881,5.026 -5.884,7.472l-5.955,7.352c-3.829,4.853 -6.771,10.424 -9.417,16.106c-1.325,2.845 -2.562,5.739 -3.746,8.66c-1.213,2.912 -2.312,5.871 -3.403,8.846c1.292,-6.207 3.163,-12.299 5.558,-18.2c2.438,-5.866 5.314,-11.662 9.403,-16.699c3.974,-4.954 8.227,-9.638 12.237,-14.483c4.019,-4.841 7.731,-9.935 11.25,-15.202" style="fill:#43562d;fill-rule:nonzero;"/><path d="M77.826,428.493c0,0 52.082,-22.174 53.629,-105.196" style="fill:none;fill-rule:nonzero;stroke:#43562d;stroke-width:1.11px;"/><path d="M91.85,356.112c0,0 -4.926,22.397 -2.762,32.619c1.066,5.035 4.949,13.555 6.145,22.174c0,0 7.135,-10.346 7.238,-23.743c0.055,-7.157 -4.257,-21.237 -10.621,-31.05" style="fill:#759154;fill-rule:nonzero;"/><path d="M95.191,410.643c1.084,-6.466 2.121,-15.739 0.878,-23.15c-1.887,-11.253 -3.926,-17.936 -4.22,-31.379c0,0 -4.926,22.396 -2.762,32.618c1.055,4.983 4.866,13.382 6.104,21.911" style="fill:#59723f;fill-rule:nonzero;"/><path d="M91.85,356.113c0.422,5.241 1.053,10.437 2.009,15.571c0.948,5.135 2.137,10.251 3.016,15.45c0.452,2.645 0.602,5.326 0.603,7.983c-0.027,2.658 -0.243,5.303 -0.54,7.929c-0.658,5.246 -1.758,10.421 -3.33,15.444c0.849,-5.189 1.48,-10.39 1.896,-15.585c0.198,-2.599 0.282,-5.197 0.288,-7.788c-0.032,-2.591 -0.222,-5.158 -0.601,-7.698l-1.345,-7.74c-0.464,-2.583 -0.899,-5.18 -1.244,-7.795c-0.715,-5.231 -0.941,-10.52 -0.752,-15.771" style="fill:#43562d;fill-rule:nonzero;"/><path d="M107.869,339.71c0,0 -5.61,22.235 -3.761,32.518c0.91,5.066 4.531,13.701 5.462,22.353c0,0 7.447,-10.123 7.962,-23.512c0.275,-7.151 -3.603,-21.356 -9.663,-31.359" style="fill:#759154;fill-rule:nonzero;"/><path d="M109.536,394.316c1.282,-6.43 2.603,-15.667 1.588,-23.113c-1.54,-11.306 -3.374,-18.047 -3.255,-31.493c0,0 -5.61,22.235 -3.761,32.517c0.902,5.015 4.452,13.526 5.428,22.089" style="fill:#59723f;fill-rule:nonzero;"/><path d="M107.869,339.71c0.261,5.252 0.732,10.464 1.53,15.626c0.79,5.161 1.823,10.311 2.54,15.535c0.371,2.657 0.439,5.342 0.359,7.997c-0.109,2.656 -0.407,5.293 -0.783,7.909c-0.819,5.223 -2.077,10.362 -3.802,15.335c1.008,-5.161 1.798,-10.339 2.373,-15.52c0.277,-2.591 0.44,-5.187 0.527,-7.776c0.047,-2.59 -0.064,-5.162 -0.365,-7.712l-1.107,-7.777c-0.384,-2.596 -0.741,-5.207 -1.004,-7.831c-0.554,-5.249 -0.62,-10.544 -0.268,-15.786" style="fill:#43562d;fill-rule:nonzero;"/><path d="M106.495,308.187c0,0 1.325,22.894 6.177,32.146c2.389,4.559 8.434,11.708 11.921,19.682c0,0 4.065,-11.891 0.536,-24.816c-1.886,-6.906 -9.85,-19.289 -18.634,-27.012" style="fill:#759154;fill-rule:nonzero;"/><path d="M124.481,359.773c-0.707,-6.518 -2.222,-15.726 -5.425,-22.523c-4.864,-10.322 -8.637,-16.202 -12.561,-29.063c0,0 1.325,22.894 6.176,32.147c2.366,4.512 8.308,11.564 11.81,19.439" style="fill:#59723f;fill-rule:nonzero;"/><path d="M106.495,308.187c1.826,4.932 3.841,9.762 6.152,14.445c2.303,4.687 4.834,9.289 7.087,14.056c1.152,2.423 2.023,4.964 2.743,7.52c0.695,2.568 1.202,5.171 1.628,7.78c0.787,5.227 1.131,10.507 0.978,15.768c-0.588,-5.225 -1.39,-10.402 -2.397,-15.515c-0.513,-2.555 -1.136,-5.08 -1.831,-7.575c-0.733,-2.486 -1.611,-4.906 -2.665,-7.249l-3.39,-7.084c-1.146,-2.362 -2.27,-4.745 -3.31,-7.168c-2.103,-4.841 -3.755,-9.873 -4.995,-14.978" style="fill:#43562d;fill-rule:nonzero;"/><path d="M124.737,277.188c0,0 -3.5,22.664 -0.694,32.729c1.381,4.957 5.795,13.214 7.534,21.741c0,0 6.466,-10.776 5.723,-24.154c-0.398,-7.146 -5.591,-20.924 -12.563,-30.316" style="fill:#759154;fill-rule:nonzero;"/><path d="M131.518,331.398c0.674,-6.521 1.122,-15.842 -0.586,-23.16c-2.595,-11.111 -5.052,-17.652 -6.195,-31.049c0,0 -3.5,22.663 -0.695,32.728c1.369,4.907 5.702,13.046 7.476,21.481" style="fill:#59723f;fill-rule:nonzero;"/><path d="M124.738,277.188c0.752,5.205 1.71,10.35 2.988,15.414c1.271,5.065 2.782,10.096 3.987,15.229c0.618,2.61 0.937,5.277 1.106,7.928c0.142,2.656 0.092,5.308 -0.037,7.948c-0.325,5.276 -1.096,10.51 -2.348,15.624c0.52,-5.234 0.821,-10.463 0.908,-15.674c0.032,-2.607 -0.048,-5.205 -0.205,-7.791c-0.196,-2.584 -0.547,-5.134 -1.087,-7.646l-1.831,-7.637c-0.626,-2.549 -1.225,-5.115 -1.735,-7.703c-1.043,-5.174 -1.604,-10.439 -1.746,-15.692" style="fill:#43562d;fill-rule:nonzero;"/><path d="M158.114,391.251c0,0 -18.956,12.907 -29.248,14.702c-5.07,0.885 -14.423,0.451 -22.869,2.548c0,0 6.948,-10.472 19.346,-15.554c6.622,-2.715 21.294,-3.951 32.771,-1.696" style="fill:#759154;fill-rule:nonzero;"/><path d="M106.257,408.441c5.599,-3.412 13.82,-7.825 21.161,-9.43c11.148,-2.436 18.109,-3.03 30.696,-7.76c0,0 -18.956,12.907 -29.248,14.702c-5.018,0.875 -14.231,0.464 -22.609,2.488" style="fill:#59723f;fill-rule:nonzero;"/><path d="M158.114,391.251c-4.804,2.131 -9.798,3.888 -14.918,5.172c-2.556,0.653 -5.13,1.215 -7.699,1.745l-7.684,1.633c-2.499,0.593 -4.952,1.371 -7.37,2.305c-2.401,0.971 -4.782,2.017 -7.121,3.166c-4.667,2.32 -9.26,4.84 -13.76,7.56c4.077,-3.329 8.472,-6.275 13.096,-8.838c2.327,-1.253 4.701,-2.437 7.158,-3.452c2.467,-0.987 5.012,-1.846 7.634,-2.41c5.152,-1.12 10.344,-1.92 15.463,-2.95c5.122,-1.024 10.179,-2.371 15.201,-3.931" style="fill:#43562d;fill-rule:nonzero;"/><path d="M166.514,358.834c0,0 -15.591,16.816 -25.222,20.867c-4.744,1.995 -13.957,3.663 -21.72,7.595c0,0 4.431,-11.76 15.38,-19.484c5.847,-4.126 19.873,-8.611 31.562,-8.978" style="fill:#759154;fill-rule:nonzero;"/><path d="M119.811,387.18c4.693,-4.577 11.721,-10.716 18.518,-13.921c10.32,-4.866 16.973,-7.001 28.184,-14.425c0,0 -15.591,16.817 -25.222,20.867c-4.696,1.975 -13.767,3.633 -21.48,7.479" style="fill:#59723f;fill-rule:nonzero;"/><path d="M166.514,358.834c-4.205,3.15 -8.681,5.979 -13.384,8.375c-2.345,1.207 -4.728,2.33 -7.114,3.422l-7.125,3.308c-2.304,1.137 -4.521,2.444 -6.668,3.895c-2.124,1.483 -4.211,3.034 -6.233,4.678c-4.031,3.303 -7.944,6.787 -11.723,10.443c3.23,-4.155 6.855,-8.01 10.789,-11.541c1.989,-1.741 4.038,-3.427 6.206,-4.965c2.184,-1.513 4.472,-2.919 6.902,-4.055c4.772,-2.243 9.654,-4.183 14.412,-6.331c4.764,-2.143 9.391,-4.586 13.938,-7.229" style="fill:#43562d;fill-rule:nonzero;"/><path d="M168.58,319.983c0,0 -11.09,20.072 -19.464,26.319c-4.126,3.078 -12.667,6.913 -19.257,12.596c0,0 1.474,-12.48 10.242,-22.61c4.685,-5.412 17.219,-13.138 28.479,-16.305" style="fill:#759154;fill-rule:nonzero;"/><path d="M130.064,358.729c3.455,-5.571 8.8,-13.221 14.627,-17.966c8.847,-7.205 14.791,-10.878 23.889,-20.779c0,0 -11.09,20.072 -19.464,26.32c-4.084,3.046 -12.49,6.837 -19.052,12.425" style="fill:#59723f;fill-rule:nonzero;"/><path d="M168.58,319.983c-3.325,4.068 -6.988,7.892 -10.979,11.348c-1.985,1.736 -4.028,3.399 -6.082,5.033l-6.12,4.924c-1.962,1.657 -3.799,3.459 -5.535,5.384c-1.705,1.951 -3.358,3.957 -4.926,6.04c-3.118,4.175 -6.078,8.498 -8.867,12.956c2.136,-4.811 4.728,-9.424 7.697,-13.797c1.512,-2.169 3.095,-4.297 4.831,-6.312c1.754,-1.995 3.637,-3.909 5.723,-5.597c4.093,-3.324 8.364,-6.381 12.467,-9.611c4.108,-3.225 8.013,-6.71 11.791,-10.368" style="fill:#43562d;fill-rule:nonzero;"/><path d="M501.476,167.317c5.413,20.418 5.116,73.167 5.116,84.221l3.862,0c0,0 -1.698,-48.946 7.617,-76.871c9.314,-27.925 -16.595,-7.35 -16.595,-7.35" style="fill:#006852;fill-rule:nonzero;"/><path d="M539.499,159.147c9.503,-0.775 15.71,-3.975 18.231,-7.224c0,0 -6.207,13.431 -12.218,14.788c0,0 6.206,7.564 3.102,12.801c0,0 -1.552,-7.48 -11.054,-7.91c-9.504,-0.43 -11.638,0 -11.638,0c0,0 -4.058,12.927 2.626,20.116c0,0 -7.087,-0.956 -13.1,-6.387c-6.012,-5.431 -7.705,-12.184 -10.279,-13.51c-4.267,-2.2 -18.619,-2.007 -24.632,4.394c0,0 1.917,-7.467 6.401,-10.473c0,0 -10.086,-5.55 -12.414,-18.776c0,0 11.249,9.272 21.335,7.72c10.085,-1.551 43.64,4.461 43.64,4.461" style="fill:#8da577;fill-rule:nonzero;"/><g opacity="0.64"><path d="M492.203,160.016c-6.958,0.628 -5.541,2.174 -5.541,2.174c0,0 5.798,2.191 7.731,3.866c1.933,1.675 -5.283,3.286 -5.283,3.286c0,0 5.79,-1.874 12.366,-0.969c6.576,0.904 10.054,6.96 15.982,11.083l-1.331,-6.958c0,0 2.877,8.505 5.196,11.339c0,0 -2.706,-7.586 0,-11.91c2.706,-4.325 14.067,-4.839 18.952,-2.585c4.886,2.255 5.272,3.929 5.272,3.929c0,0 -2.202,-6.44 -5.927,-7.087c-3.725,-0.647 4.381,-2.705 4.381,-2.705c0,0 0,-0.129 -12.498,-0.774c-12.499,-0.644 -38.399,-2.689 -38.399,-2.689" style="fill:#74895d;fill-rule:nonzero;"/></g><path d="M501.278,89.47c3.348,-6.294 12.068,-9.931 20.54,-11.29c8.472,-1.357 11.491,1.288 11.03,5.138c-0.461,3.849 -0.586,7.557 -2.445,8.713c-1.858,1.155 -16.28,1.792 -16.28,1.792l-12.845,-4.353Z" style="fill:#e85d81;fill-rule:nonzero;"/><g opacity="0.42"><path d="M528.964,89.345c-3.219,-6.768 -17.546,-6.378 -20.7,-4.151c-3.154,2.227 -2.233,7.536 0.13,7.8c2.362,0.265 15.906,2.287 15.906,2.287l3.996,-3.019l0.668,-2.917Z" style="fill:#c12f5c;fill-rule:nonzero;"/></g><path d="M492.674,91.46c4.099,-5.983 9.629,-4.536 13.741,-3.996c0,0 -7.168,11.475 -11.439,10.042c-4.272,-1.432 -2.302,-6.046 -2.302,-6.046" style="fill:#b21f54;fill-rule:nonzero;"/><path d="M494.812,98.601c3.405,-10.305 9.934,-12.442 18.395,-13.089c8.463,-0.648 12.446,3.311 9.561,6.749c-2.884,3.438 -13.683,8.599 -14.865,8.729c-1.182,0.13 -13.091,-2.389 -13.091,-2.389" style="fill:#c12f5c;fill-rule:nonzero;"/><path d="M504.043,96.155c-7.421,-0.448 -9.822,-8.086 -12.669,-5.595c-2.847,2.491 -4.207,10.608 -1.115,16.214c3.092,5.606 9.475,4.052 9.475,4.052l4.787,-14.909" style="fill:#e85d81;fill-rule:nonzero;"/><path d="M501.287,97.815c-6.362,2.201 -10.787,7.719 -10.787,7.719c0,0 2.673,3.206 3.368,3.494c0.694,0.288 3.823,-2.608 3.823,-2.608l3.596,-8.605Z" style="fill:#c12f5c;fill-rule:nonzero;"/><path d="M543.346,112.144c0.02,-0.497 0.029,-0.999 0.031,-1.504c0.031,-10.18 -3.377,-21.775 -5.797,-22.569c-2.54,-0.833 -14.148,4.006 -24.621,5.382c-10.472,1.375 -17.282,7.674 -18.297,13.915c-1.015,6.24 8.146,16.666 8.146,16.666l19.457,-1.195l15.461,-7.329" style="fill:#cc4072;fill-rule:nonzero;"/><path d="M535.562,110.946c-16.646,-2.059 -22.336,1.684 -28.794,1.858c-6.458,0.176 -11.368,-3.657 -11.368,-3.657l9.621,10.632l5.598,1.632l17.585,-7.257l7.321,-3.547" style="fill:#c12f5c;fill-rule:nonzero;"/><path d="M518.515,168.759c-10.496,2.253 -22.118,0.883 -28.612,-6.179c-2.949,-3.215 -4.558,-9.163 -5.521,-15.773c-0.153,-1.063 -0.291,-2.146 -0.419,-3.23l-0.016,-0.152c-0.093,-0.843 -0.178,-1.696 -0.263,-2.548l-0.007,-0.063c-0.588,-6.161 0.146,-19.556 0.57,-24.219c1.506,-16.526 -3.683,-9.751 2.673,-10.214c5.913,-0.442 10.937,5.375 19.713,11.07c0.645,0.419 1.318,0.844 2.008,1.258c0,0 20.37,47.797 9.874,50.05" style="fill:#e85d81;fill-rule:nonzero;"/><g opacity="0.62"><path d="M518.515,168.759c-6.596,1.416 -13.631,1.4 -19.554,-0.552c-3.52,-1.155 -6.645,-2.998 -9.058,-5.627c-2.949,-3.215 -4.558,-9.163 -5.521,-15.773c2.749,14.426 15.216,14.569 15.264,7.994c0.057,-6.985 -4.967,-21.124 6.987,-37.35c0.645,0.419 1.318,0.844 2.008,1.258c0,0 9.887,23.205 12.337,38.045c1.063,6.453 0.72,11.319 -2.463,12.005" style="fill:#cc4072;fill-rule:nonzero;"/></g><g opacity="0.75"><path d="M518.515,168.759c-6.596,1.416 -13.631,1.4 -19.554,-0.552c2.322,-0.845 6.493,-2.276 6.409,-6.169c-0.12,-5.622 -2.153,-9.5 -0.612,-19.162l16.22,13.878c1.063,6.453 0.72,11.319 -2.463,12.005" style="fill:#cc4072;fill-rule:nonzero;"/></g><path d="M508.756,161.881c-6.363,-12.647 -7.979,-30.339 -2.525,-40.704c5.454,-10.363 15.459,-8.143 23.53,-9.109c8.071,-0.967 18.989,-2.433 20.754,-0.781c1.764,1.653 3.34,25.548 -3.034,39.539c-6.374,13.992 -12.872,17.265 -21.73,18.28c-8.856,1.015 -14.915,-3.091 -16.995,-7.225" style="fill:#e85d81;fill-rule:nonzero;"/><path d="M515.174,113.57c8.338,0.908 9.385,8.345 19.157,7.727c9.773,-0.618 21.782,-1.706 24.564,-7.622c2.782,-5.915 -2.868,-5.392 -17.308,-3.393c-14.439,2 -20.63,-0.043 -26.413,3.288" style="fill:#da9ba7;fill-rule:nonzero;"/><path d="M500.01,113.328c-5.172,-7.965 -13.164,-12.067 -18.476,-11.866c-5.311,0.201 -6.643,6.48 -3.92,11.163c2.721,4.683 7.186,6.811 10.409,6.009c3.221,-0.802 5.83,-8.359 11.987,-5.306" style="fill:#da9ba7;fill-rule:nonzero;"/><path d="M507.223,94.8c5.181,3.165 13.169,4.957 20.525,3.034c7.357,-1.923 10.157,-4.148 11.583,-7.687c1.427,-3.539 1.161,-5.958 -3.312,-4.13c-4.474,1.828 -22.094,5.2 -28.796,8.783" style="fill:#da9ba7;fill-rule:nonzero;"/><path d="M347.298,308.465l0,112.292" style="fill:none;fill-rule:nonzero;stroke:#8da577;stroke-width:2.11px;"/><path d="M347.298,334.153c17.795,-5.006 24.646,-18.443 27.808,-23.45" style="fill:none;fill-rule:nonzero;stroke:#8da577;stroke-width:2.11px;"/><path d="M363.775,312.548c-1.054,6.061 0,13.965 0,13.965" style="fill:none;fill-rule:nonzero;stroke:#8da577;stroke-width:2.11px;"/><path d="M319.082,318.748c7.48,18.363 28.216,24.71 28.216,24.71" style="fill:none;fill-rule:nonzero;stroke:#8da577;stroke-width:2.11px;"/><path d="M313.868,337.111c13.148,8.161 23.866,1.933 23.866,1.933" style="fill:none;fill-rule:nonzero;stroke:#8da577;stroke-width:2.11px;"/><path d="M347.298,376.287c20.43,-7.641 29.389,-26.349 31.232,-35.308" style="fill:none;fill-rule:nonzero;stroke:#8da577;stroke-width:2.11px;"/><path d="M363.775,340.98c-3.689,10.54 1.193,23.853 1.193,23.853" style="fill:none;fill-rule:nonzero;stroke:#8da577;stroke-width:2.11px;"/><path d="M371.286,357.143c9.353,0.7 17.784,-7.468 17.784,-7.468" style="fill:none;fill-rule:nonzero;stroke:#8da577;stroke-width:2.11px;"/><path d="M316.61,369.7c12.911,17.653 30.687,22.396 30.687,22.396" style="fill:none;fill-rule:nonzero;stroke:#8da577;stroke-width:2.11px;"/><path d="M330.9,364.832c3.891,8.557 3.44,21.237 3.44,21.237" style="fill:none;fill-rule:nonzero;stroke:#8da577;stroke-width:2.11px;"/><path d="M357.39,300.611c0,5.573 -4.518,10.092 -10.092,10.092c-5.573,0 -10.092,-4.519 -10.092,-10.092c0,-5.574 4.519,-10.092 10.092,-10.092c5.574,0 10.092,4.518 10.092,10.092" style="fill:#e85d81;fill-rule:nonzero;"/><path d="M354.36,297.076c0,2.229 -1.808,4.037 -4.037,4.037c-2.231,0 -4.038,-1.808 -4.038,-4.037c0,-2.229 1.807,-4.037 4.038,-4.037c2.229,0 4.037,1.808 4.037,4.037" style="fill:#ff8aae;fill-rule:nonzero;"/><path d="M391.47,334.258c0,5.573 -4.518,10.092 -10.092,10.092c-5.573,0 -10.092,-4.519 -10.092,-10.092c0,-5.573 4.519,-10.092 10.092,-10.092c5.574,0 10.092,4.519 10.092,10.092" style="fill:#e85d81;fill-rule:nonzero;"/><path d="M388.44,330.723c0,2.229 -1.808,4.037 -4.037,4.037c-2.23,0 -4.038,-1.808 -4.038,-4.037c0,-2.229 1.808,-4.037 4.038,-4.037c2.229,0 4.037,1.808 4.037,4.037" style="fill:#ff8aae;fill-rule:nonzero;"/><path d="M384.751,306.917c0,3.482 -2.823,6.306 -6.306,6.306c-3.483,0 -6.305,-2.824 -6.305,-6.306c0,-3.482 2.822,-6.306 6.305,-6.306c3.483,0 6.306,2.824 6.306,6.306" style="fill:#e85d81;fill-rule:nonzero;"/><path d="M382.857,304.708c0,1.394 -1.129,2.522 -2.522,2.522c-1.394,0 -2.523,-1.128 -2.523,-2.522c0,-1.394 1.129,-2.522 2.523,-2.522c1.393,0 2.522,1.128 2.522,2.522" style="fill:#ff8aae;fill-rule:nonzero;"/><path d="M395.469,351.194c0,3.482 -2.822,6.306 -6.306,6.306c-3.482,0 -6.305,-2.824 -6.305,-6.306c0,-3.482 2.823,-6.306 6.305,-6.306c3.484,0 6.306,2.824 6.306,6.306" style="fill:#e85d81;fill-rule:nonzero;"/><path d="M393.576,348.985c0,1.394 -1.129,2.522 -2.522,2.522c-1.394,0 -2.523,-1.128 -2.523,-2.522c0,-1.394 1.129,-2.522 2.523,-2.522c1.393,0 2.522,1.128 2.522,2.522" style="fill:#ff8aae;fill-rule:nonzero;"/><path d="M323.559,364.333c0,4.454 -3.611,8.064 -8.064,8.064c-4.455,0 -8.065,-3.61 -8.065,-8.064c0,-4.453 3.61,-8.064 8.065,-8.064c4.453,0 8.064,3.611 8.064,8.064" style="fill:#e85d81;fill-rule:nonzero;"/><path d="M321.138,361.509c0,1.781 -1.444,3.226 -3.227,3.226c-1.781,0 -3.225,-1.445 -3.225,-3.226c0,-1.782 1.444,-3.227 3.225,-3.227c1.783,0 3.227,1.445 3.227,3.227" style="fill:#ff8aae;fill-rule:nonzero;"/><path d="M319.293,335.892c0,2.997 -2.429,5.426 -5.425,5.426c-2.996,0 -5.426,-2.429 -5.426,-5.426c0,-2.996 2.43,-5.425 5.426,-5.425c2.996,0 5.425,2.429 5.425,5.425" style="fill:#e85d81;fill-rule:nonzero;"/><path d="M317.665,333.991c0,1.199 -0.972,2.171 -2.171,2.171c-1.198,0 -2.171,-0.972 -2.171,-2.171c0,-1.198 0.973,-2.17 2.171,-2.17c1.199,0 2.171,0.972 2.171,2.17" style="fill:#ff8aae;fill-rule:nonzero;"/><path d="M325.812,315.162c0,4.655 -3.774,8.429 -8.43,8.429c-4.655,0 -8.428,-3.774 -8.428,-8.429c0,-4.655 3.773,-8.429 8.428,-8.429c4.656,0 8.43,3.774 8.43,8.429" style="fill:#e85d81;fill-rule:nonzero;"/><path d="M323.282,312.21c0,1.862 -1.51,3.372 -3.372,3.372c-1.862,0 -3.373,-1.51 -3.373,-3.372c0,-1.862 1.511,-3.372 3.373,-3.372c1.862,0 3.372,1.51 3.372,3.372" style="fill:#ff8aae;fill-rule:nonzero;"/><path d="M368.352,310.703c0,2.787 -2.259,5.046 -5.046,5.046c-2.787,0 -5.046,-2.259 -5.046,-5.046c0,-2.787 2.259,-5.046 5.046,-5.046c2.787,0 5.046,2.259 5.046,5.046" style="fill:#e85d81;fill-rule:nonzero;"/><path d="M366.838,308.936c0,1.115 -0.903,2.019 -2.019,2.019c-1.115,0 -2.018,-0.904 -2.018,-2.019c0,-1.115 0.903,-2.019 2.018,-2.019c1.116,0 2.019,0.904 2.019,2.019" style="fill:#ff8aae;fill-rule:nonzero;"/><path d="M368.587,339.843c0,2.787 -2.259,5.046 -5.046,5.046c-2.787,0 -5.046,-2.259 -5.046,-5.046c0,-2.787 2.259,-5.046 5.046,-5.046c2.787,0 5.046,2.259 5.046,5.046" style="fill:#e85d81;fill-rule:nonzero;"/><path d="M367.072,338.075c0,1.114 -0.903,2.019 -2.019,2.019c-1.115,0 -2.018,-0.905 -2.018,-2.019c0,-1.115 0.903,-2.019 2.018,-2.019c1.116,0 2.019,0.904 2.019,2.019" style="fill:#ff8aae;fill-rule:nonzero;"/><path d="M335.946,364.832c0,2.786 -2.259,5.046 -5.046,5.046c-2.787,0 -5.046,-2.26 -5.046,-5.046c0,-2.787 2.259,-5.047 5.046,-5.047c2.787,0 5.046,2.26 5.046,5.047" style="fill:#e85d81;fill-rule:nonzero;"/><path d="M334.431,363.065c0,1.114 -0.903,2.019 -2.019,2.019c-1.115,0 -2.018,-0.905 -2.018,-2.019c0,-1.115 0.903,-2.02 2.018,-2.02c1.116,0 2.019,0.905 2.019,2.02" style="fill:#ff8aae;fill-rule:nonzero;"/><path d="M171.94,117.463c-0.438,-0.844 -1.146,-1.309 -2.713,-1.559c-1.499,-0.241 -3.791,-0.293 -7.395,-0.293c-7.371,0 -13.37,5.951 -23.107,6.415c0,0 -10.647,5.666 -15.861,3.04c-5.206,-2.626 -6.268,-9.979 6.755,-21.372c2.123,-1.851 4.144,-3.358 6.099,-4.538c0.042,-0.026 0.068,-0.034 0.068,-0.034c9.99,-6.028 18.026,-3.668 26.904,2.471c10.622,7.363 9.25,15.87 9.25,15.87" style="fill:#8da577;fill-rule:nonzero;"/><path d="M122.864,112.633c-5.889,6.828 -12.442,8.929 -18.095,7.354c-5.652,-1.576 -8.735,-8.405 -9.249,-19.09c-0.135,-2.722 -0.126,-5.244 0.16,-7.595c0.843,-6.906 4.136,-12.356 13.714,-16.929c12.855,-6.131 21.101,-4.727 21.101,-4.727c0,0 -1.735,2.626 0.489,8.585c0.707,1.877 1.508,4.081 2.005,6.535c1.069,5.296 0.657,11.78 -5.45,18.824c0,0 1.221,0.206 -4.675,7.043" style="fill:#8da577;fill-rule:nonzero;"/><path d="M88.15,124.188c-7.539,2.282 -11.313,-4.021 -17.277,-6.647c-5.964,-2.618 -13.057,-7.535 -16.486,-10.342c-3.42,-2.798 -8.052,0 -8.052,0c0.218,-0.594 0.505,-1.438 0.968,-2.419c1.727,-3.669 5.906,-9.274 18.052,-11.065c15.424,-2.282 26.122,4.469 32.979,18.263c1.027,8.017 -2.645,9.937 -10.184,12.21" style="fill:#8da577;fill-rule:nonzero;"/><path d="M126.875,117.465c4.112,-5.185 13.879,-8.477 21.076,-8.583" style="fill:none;fill-rule:nonzero;stroke:#74895d;stroke-width:1.69px;stroke-linecap:round;"/><g opacity="0.64"><path d="M169.227,115.905c-1.499,-0.241 -3.791,-0.293 -7.396,-0.293c-7.371,0 -13.369,5.95 -23.106,6.415c0,0 -10.647,5.666 -15.861,3.04c-5.206,-2.626 -6.268,-9.98 6.755,-21.372c2.123,-1.852 4.144,-3.358 6.099,-4.538c0.042,-0.026 0.068,-0.034 0.068,-0.034c-7.885,10.066 -0.413,18.478 7.092,19.167c7.505,0.689 12.071,-8.559 20.503,-6.208c3.1,0.869 4.852,2.299 5.846,3.823" style="fill:#74895d;fill-rule:nonzero;"/></g><path d="M107.854,113.174c-1.028,-8.25 2.378,-23.139 6.587,-26.642" style="fill:none;fill-rule:nonzero;stroke:#74895d;stroke-width:1.69px;stroke-linecap:round;"/><g opacity="0.64"><path d="M122.864,112.633c-5.889,6.828 -12.442,8.929 -18.095,7.354c-5.652,-1.576 -8.735,-8.405 -9.249,-19.09c-0.135,-2.722 -0.126,-5.244 0.16,-7.595c0.809,15.275 16.359,16.67 23.553,13.407c7.194,-3.272 10.496,-8.784 12.155,-14.217c0.556,-1.799 1.104,-3.823 1.601,-5.726c1.069,5.296 0.657,11.78 -5.45,18.824c0,0 1.221,0.206 -4.675,7.043" style="fill:#74895d;fill-rule:nonzero;"/></g><path d="M87.635,117.465c-4.798,-9.389 -13.88,-13.592 -19.021,-14.293" style="fill:none;fill-rule:nonzero;stroke:#74895d;stroke-width:1.69px;stroke-linecap:round;"/><g opacity="0.64"><path d="M88.15,124.188c-7.539,2.282 -11.313,-4.021 -17.277,-6.647c-5.964,-2.618 -13.057,-7.535 -16.486,-10.342c-3.42,-2.798 -8.052,0 -8.052,0c0.218,-0.594 0.505,-1.438 0.968,-2.419c0.623,-0.319 1.298,-0.594 2.031,-0.836c7.513,-2.48 9.214,4.461 17.327,8.542c8.12,4.09 16.468,-1.352 31.673,-0.508c1.027,8.017 -2.645,9.937 -10.184,12.21" style="fill:#74895d;fill-rule:nonzero;"/></g><rect x="109.255" y="186.237" width="1.325" height="71.232" style="fill:#8da577;"/><path d="M123.239,172.977c6.542,-6.967 14.394,-7.719 19.059,-4.303c0,0 -8.333,-1.926 -14.656,8.647c0,0 11.893,3.105 8.932,14.451c0,0 -1.202,-6.463 -9.832,-6.699c-8.63,-0.235 -11.569,0.573 -12.987,4.05c-1.417,3.476 -6.628,12.835 -6.628,12.835c0,0 0.233,-11.854 -3.829,-16.349c-4.062,-4.496 -8.408,4.581 -7.827,8.098c0,0 -4.606,-7.221 0.061,-12.439c0,0 -9.62,-6.493 -15.634,0.091c0,0 0.694,-9.387 14.623,-8.976c13.93,0.41 28.718,0.594 28.718,0.594" style="fill:#00513e;fill-rule:nonzero;"/><path d="M124.398,173.125c-7.913,12.457 -13.512,11.943 -20.749,11.083c-7.238,-0.861 -8.213,-8.264 -8.213,-8.264l28.962,-2.819Z" style="fill:#003829;fill-rule:nonzero;"/><path d="M128.929,152.957c-0.109,2.945 -0.354,5.606 -0.716,8.008c-2.628,17.376 -11.472,21.407 -20.545,21.407c-10.328,0 -14.143,-4.952 -18.17,-18.144c-1.979,-6.466 -2.72,-12.666 -3.967,-18.004c-1.29,-5.572 -3.118,-10.204 -7.405,-13.244c0,0 1.044,-0.783 2.907,-1.946c5.18,-3.246 16.746,-9.48 30.021,-10.169c3.731,-0.19 6.723,0.034 9.106,0.723c3.943,1.137 6.25,3.548 7.531,7.449c0.126,0.378 0.244,0.757 0.345,1.162c1.365,5.158 1.272,12.606 0.893,22.758" style="fill:#006852;fill-rule:nonzero;"/><path d="M128.929,152.957c-0.109,2.945 -0.354,5.606 -0.716,8.008c-19.172,-3.875 -8.019,-13.424 -16.114,-18.814c-8.222,-5.468 -18.406,-4.857 -26.568,4.073c-1.29,-5.572 -3.118,-10.204 -7.405,-13.244c0,0 1.044,-0.783 2.907,-1.946c5.18,-3.246 16.746,-9.48 30.021,-10.169c3.731,-0.19 6.723,0.034 9.106,0.723l7.531,7.449c0.126,0.378 0.244,0.757 0.345,1.162c1.365,5.158 1.272,12.606 0.893,22.758" style="fill:#00513e;fill-rule:nonzero;"/><path d="M83.956,133.882c9.972,1.862 11.529,0.721 20.593,0c9.062,-0.721 14.685,9.1 14.685,9.1c0,0 -3.101,-15.63 -9.059,-15.198c-5.958,0.432 -9.452,3.849 -9.824,5.196c0,0 -3.207,-3.584 -9.193,-3.109c-5.985,0.476 -7.202,4.011 -7.202,4.011" style="fill:#003829;fill-rule:nonzero;"/><path d="M124.326,130.321c-1.597,-6.087 -15.813,-4.308 -23.459,2.656c-8.165,-4.863 -12.249,-4.715 -16.672,-1.943c-0.331,-0.257 -0.647,-0.529 -0.956,-0.809c-6.451,-5.881 -6.802,-6.968 -2.566,-7.983c0,0 4.254,-7.579 16.77,-10.095c8.663,-1.741 22.269,0.955 25.423,3.481c6.064,4.855 4.661,8.878 1.46,14.693" style="fill:#00513e;fill-rule:nonzero;"/><path d="M119.234,126.177c-8.008,-8.712 -20.241,-7.352 -24.499,-5.313c-4.259,2.04 -6.487,4.262 -5.79,4.897c0.696,0.635 5.929,4.008 6.767,4.129c0.836,0.12 3.192,1.164 5.158,3.736c0,0 1.051,-5.556 7.26,-4.466c6.209,1.091 11.104,-2.983 11.104,-2.983" style="fill:#003829;fill-rule:nonzero;"/><path d="M144.715,136.657c-1.045,9.179 -6.478,12.167 -10.445,14.724c-3.968,2.558 -2.923,6.406 -2.923,6.406c-4.903,-2.669 -7.826,-5.399 -9.764,-8.145c-3.176,-4.504 -3.689,-9.042 -5.896,-13.416c-3.546,-7.043 -10.437,-7.896 -14.817,-3.246c1.204,-3.659 4.034,-5.692 7.152,-6.802c5.475,-1.955 11.843,-1.042 11.843,-1.042c0,0 3.125,-4.237 13.571,-4.271c8.019,-0.026 12.315,6.613 11.279,15.792" style="fill:#8da577;fill-rule:nonzero;"/><path d="M119.866,125.131c7.18,4.315 9.064,10.271 9.064,15" style="fill:none;fill-rule:nonzero;stroke:#74895d;stroke-width:1.69px;stroke-linecap:round;"/><path d="M100.35,132.981c-1.879,-1.972 -4.802,-1.231 -12.947,0c-7.405,1.111 -13.765,7.646 -23.165,11.866c-0.944,0.43 -1.921,0.826 -2.932,1.197c-11.068,4.055 -18.995,2.35 -16.283,0c2.713,-2.342 3.134,-9.601 6.056,-17.067c2.923,-7.474 8.559,-12.598 20.664,-11.314c11.279,1.283 11.692,7.68 11.692,7.68c5.938,-0.077 9.805,0.999 12.324,2.377c4.111,2.239 4.591,5.261 4.591,5.261" style="fill:#8da577;fill-rule:nonzero;"/><path d="M83.956,125.345c-10.201,0.773 -15.855,4.507 -19.454,7.632" style="fill:none;fill-rule:nonzero;stroke:#74895d;stroke-width:1.69px;stroke-linecap:round;"/><g opacity="0.64"><path d="M121.583,149.642c-3.176,-4.503 -3.689,-9.042 -5.896,-13.416c-3.546,-7.043 -10.437,-7.896 -14.817,-3.246c1.204,-3.659 4.034,-5.692 7.151,-6.802c2.005,0.413 6.42,0 9.496,3.818c4.493,5.579 0.621,13.67 4.066,19.646" style="fill:#74895d;fill-rule:nonzero;"/></g><g opacity="0.64"><path d="M100.35,132.98c-1.879,-1.972 -4.802,-1.231 -12.947,0c-7.405,1.111 -13.765,7.646 -23.165,11.865c1.979,-1.076 7.345,-6.131 10.31,-8.498c3.109,-2.471 9.064,-7.853 20.789,-8.292l0.422,-0.336c4.111,2.239 4.591,5.261 4.591,5.261" style="fill:#74895d;fill-rule:nonzero;"/></g><path d="M376.723,177.213c-0.392,13.817 4.513,24.194 10.98,24.885c6.467,0.691 10.718,-7.834 12.448,-20.757c2.498,-18.67 -23.428,-4.128 -23.428,-4.128" style="fill:#006852;fill-rule:nonzero;"/><path d="M399.568,185.017c-4.428,4.833 -9.494,-0.187 -14.562,1.961c-5.066,2.148 -4.084,10.021 -4.084,10.021c0,0 -5,-6.443 -3.877,-16.077c1.121,-9.633 13.752,-9.997 14.476,-10.005c0.724,-0.008 11.202,3.607 11.202,3.607l-3.155,10.493Z" style="fill:#00513e;fill-rule:nonzero;"/><rect x="387.704" y="199.533" width="2.431" height="57.936" style="fill:#006852;"/><path d="M365.05,165.357c-11.284,4.665 -8.231,15.273 -6.083,16.437c0,0 0.453,-7.292 11.85,-8.219c0,0 -4.344,14.085 4.148,21.14c0,0 0.555,-12.013 5.553,-14.679c0,0 11.171,-0.607 14.11,5.86c0,0 2.922,-2.799 0,-7.055c0,0 9.42,3.527 10.296,9.995c0,0 3.527,-6.762 2.201,-10.29c0,0 7.902,2.94 6.669,8.232c0,0 5.307,-11.465 -2.961,-17.639c-8.267,-6.173 -35.868,-8.525 -35.868,-8.525l-9.915,4.743Z" style="fill:#8da577;fill-rule:nonzero;"/><g opacity="0.64"><path d="M373.042,164.295c-7.992,1.062 -9.162,6.622 -9.162,6.622c0,0 6.141,-2.082 10.457,0c0,0 -2.555,6.663 -2.097,13.077c0,0 -0.021,-10.273 7.163,-10.631c7.185,-0.358 12.965,6.966 12.965,6.966c0,0 -0.887,-4.352 -2.834,-5.497c0,0 9.506,-0.176 12.369,2.832c0,0 0.458,-1.802 -0.916,-2.718c0,0 4.5,-1.718 8.034,0.916c3.534,2.635 -2.958,-12.369 -2.958,-12.369l-16.529,-2.176l-16.492,2.978Z" style="fill:#74895d;fill-rule:nonzero;"/></g><path d="M359.094,77.748c2.271,1.704 4.26,6.625 4.26,6.625c0,0 -2.681,19.77 -7.509,18.501c-6.125,-1.61 3.249,-25.126 3.249,-25.126" style="fill:#b23f62;fill-rule:nonzero;"/><path d="M354.193,104.818c2.061,-14.955 11.715,-27.07 17.395,-29.342c5.678,-2.272 9.709,6.625 9.709,6.625l-16.489,51.595l-10.615,-28.878Z" style="fill:#c65474;fill-rule:nonzero;"/><path d="M372.522,84.873c-9.286,9.147 -7.186,16.604 -12.646,17.286c-5.462,0.683 -1.316,12.142 -1.316,12.142l4.358,12.274l4.827,-7.35c0,0 4.402,-13.408 4.777,-17.066c0.376,-3.658 0,-17.286 0,-17.286" style="fill:#b23f62;fill-rule:nonzero;"/><path d="M411.092,115.562c10.654,-8.47 20.729,-6.161 22.201,-5.179c1.474,0.982 -1.294,27.005 -13.536,31.914c-12.241,4.911 -17.642,-3.633 -17.396,-4.517c0.246,-0.884 8.731,-22.218 8.731,-22.218" style="fill:#ce6f86;fill-rule:nonzero;"/><path d="M430.787,144.856l-0.009,0c-2.137,3.473 -5.178,6.486 -9.398,8.66c-4.375,2.255 -7.884,2.805 -10.681,2.372c-8.587,-1.353 -10.545,-12.078 -10.545,-12.078l3.631,-3.967c0,0 3.731,0.034 8.068,-1.103c2.942,-0.776 6.414,-2.372 9.806,-5.538c4.52,-4.221 8.885,-11.23 11.636,-22.822c2.056,7.487 4.393,23.327 -2.508,34.476" style="fill:#da9ba7;fill-rule:nonzero;"/><path d="M403.714,85.901c3.312,-7.924 14.85,-10.583 17.55,-9.622c2.7,0.961 5.646,24.822 -3.192,39.283c-8.837,14.46 -14.358,-29.661 -14.358,-29.661" style="fill:#da9ba7;fill-rule:nonzero;"/><path d="M380.355,161.869c-1.074,1.398 -3.14,2.436 -6.685,2.77c-13.006,1.235 -23.488,-1.958 -30.804,-7.289c-1.632,-1.173 -3.103,-2.462 -4.41,-3.834c-7.19,-7.514 -13.63,-18.789 -10.6,-31.472l47.817,25.609c0,0 0.785,0.875 1.768,2.228c0.551,0.758 1.154,1.651 1.723,2.625c1.75,3.022 3.13,6.81 1.191,9.363" style="fill:#da9ba7;fill-rule:nonzero;"/><g opacity="0.56"><path d="M380.355,161.869c-1.074,1.398 -3.14,2.436 -6.685,2.77c-13.006,1.235 -23.488,-1.958 -30.804,-7.289c8.154,3.401 20.557,6.008 19.277,2.814c-3.302,-8.253 3.292,-9.354 5.602,-7.649l9.696,-2.634l1.344,-0.37l0.379,2.995l1.191,9.363Z" style="fill:#ce6f86;fill-rule:nonzero;"/></g><path d="M377.835,152.334c-20.445,5.3 -49.409,-7.578 -49.977,-30.292c0,0 18.742,-0.186 28.964,2.275c10.222,2.461 21.013,28.017 21.013,28.017" style="fill:#ce6f86;fill-rule:nonzero;"/><g opacity="0.8"><path d="M352.131,126.574c-13.479,4.156 -5.617,20.6 15.614,25.149c21.232,4.55 -15.614,-25.149 -15.614,-25.149" style="fill:#cc5275;fill-rule:nonzero;"/></g><path d="M356.337,86.373c-5.658,-6.87 -13.023,-8.555 -14.496,-7.099c-1.473,1.456 -3.191,13.962 -2.209,26.613c0.981,12.65 8.494,20.506 13.698,23.943c5.205,3.437 3.007,-43.457 3.007,-43.457" style="fill:#d87b91;fill-rule:nonzero;"/><path d="M419.675,113.718c-1.137,17.599 -5.872,26.312 -17.229,34.828c-0.821,0.622 -1.579,0.929 -2.282,0.956c-1.452,0.081 -2.635,-1.029 -3.599,-2.932c-0.298,-0.586 -0.577,-1.245 -0.839,-1.976c-4.014,-11.338 -3.311,-38.345 -3.311,-38.345l4.916,-29.974c11.529,5.728 20.775,16.507 22.227,30.804c0.216,2.138 0.262,4.348 0.117,6.639" style="fill:#d87b91;fill-rule:nonzero;"/><g opacity="0.8"><path d="M419.675,113.718c-1.137,17.599 -5.872,26.312 -17.229,34.828c-0.821,0.622 -1.579,0.929 -2.282,0.956c-1.362,-0.885 -2.733,-2.084 -3.599,-2.932c-0.478,-0.469 -0.812,-0.83 -0.903,-0.965c-0.026,-0.045 -0.008,-0.397 0.064,-1.011c0.875,-7.54 8.966,-54.59 9.949,-53.932c1.074,0.713 4.89,9.589 5.024,22.235c0.136,12.647 3.401,14.532 8.849,-5.845l0.01,0.027c0.216,2.138 0.262,4.348 0.117,6.639" style="fill:#cc5275;fill-rule:nonzero;"/></g><path d="M373.859,148.737c-17.037,-24.42 -9.606,-51.112 -3.667,-60.578c5.938,-9.465 16.918,-16.469 17.297,-14.197c0,0 1.704,-3.598 4.732,-2.083c3.03,1.514 13.251,10.98 15.524,27.449c2.271,16.47 2.461,34.453 -7.573,46.191c-10.033,11.737 -26.313,3.218 -26.313,3.218" style="fill:#d87b91;fill-rule:nonzero;"/><g opacity="0.8"><path d="M365.509,129.027c9.574,15.07 27.788,14.423 27.788,14.423c0,0 -13.65,7.129 -14.512,6.06c-0.861,-1.068 -8.302,-4.029 -9.176,-6.06c-0.874,-2.03 -4.1,-14.423 -4.1,-14.423" style="fill:#cc5275;fill-rule:nonzero;"/></g><g opacity="0.56"><path d="M430.778,144.856c-2.138,3.473 -5.178,6.486 -9.398,8.66c-4.375,2.255 -7.884,2.805 -10.681,2.372l0,-16.065l1.154,-1.083c2.942,-0.776 6.414,-2.372 9.806,-5.538c5.737,5.169 1.588,11.717 9.119,11.654" style="fill:#ce6f86;fill-rule:nonzero;"/></g><path d="M374.103,153.083c-4.41,-1.317 -16.714,-7.947 -22.019,-20.44c-1.163,-2.751 -2.065,-6.305 -2.633,-10.31c-1.994,-14.144 0.198,-33.962 9.642,-44.588c-3.851,16.138 3.374,47.682 10.419,60.526c0.226,0.425 0.451,0.812 0.677,1.191c7.252,11.97 8.325,14.947 3.914,13.621" style="fill:#da9ba7;fill-rule:nonzero;"/><g opacity="0.56"><path d="M374.103,153.083c-4.41,-1.317 -16.714,-7.947 -22.019,-20.44c-1.163,-2.751 -2.065,-6.305 -2.633,-10.31c-0.126,-2.156 -0.244,-4.078 -0.334,-5.484c0.721,5.231 3.599,14.026 7.127,19.88c3.824,6.333 12.186,11.447 13.268,1.542c0.226,0.425 0.451,0.812 0.677,1.191c7.252,11.97 8.325,14.947 3.914,13.621" style="fill:#ce6f86;fill-rule:nonzero;"/></g><path d="M374.488,169.249c-10.263,-12.23 -2.104,-22.192 8.776,-25.819c10.881,-3.627 30.829,-2.946 34.154,-8.274c3.325,-5.327 5.138,4.949 3.929,14.319c-1.209,9.369 -4.884,21.675 -18.995,23.358c-14.11,1.683 -25.65,-0.946 -27.864,-3.584" style="fill:#da9ba7;fill-rule:nonzero;"/><path d="M349.117,116.849c-0.107,-0.713 -0.162,-1.353 -0.18,-1.921c-0.036,-1.146 0.045,-0.181 0.18,1.921" style="fill:#da9ba7;fill-rule:nonzero;"/><path d="M645.943,159.502c2.637,12.305 10.808,12.416 13.403,10.107c3.888,-3.455 0.757,-27.308 0.757,-27.308l-10.385,1.381l-6.192,5.493l2.417,10.327Z" style="fill:#006852;fill-rule:nonzero;"/><path d="M645.756,154.396c5.212,8.914 13.109,6.994 15.264,6.309c2.154,-0.686 -8.609,-14.671 -8.609,-14.671l-5.756,1.916l-1.819,6.818" style="fill:#004736;fill-rule:nonzero;"/><path d="M659.702,183.233c-6.78,-15.438 -40.151,-24.64 -51.342,-55.628" style="fill:none;fill-rule:nonzero;stroke:#006852;stroke-width:0.85px;"/><path d="M609.376,130.217c-7.16,-6.45 -14.29,-26.664 -7.057,-43.337c0,0 0.059,6.641 3.167,14.835c3.109,8.193 4.305,17.176 3.89,28.502" style="fill:#006852;fill-rule:nonzero;"/><path d="M612.916,137.314c-7.795,-7.108 -17.67,-6.926 -20.047,-16.251c0,0 0.707,11.169 7.497,15.359c6.79,4.191 12.55,0.892 12.55,0.892" style="fill:#006852;fill-rule:nonzero;"/><path d="M640.696,125.766c-1.524,-18.553 11.691,-31.769 31.516,-38.886c0,0 0.762,13.47 -4.067,22.874c-4.829,9.404 -10.675,16.012 -10.675,16.012c0,0 6.355,-3.812 20.587,-3.304c14.233,0.509 19.062,1.525 19.062,1.525c0,0 -9.404,20.333 -31.516,17.791c0,0 12.454,6.862 12.454,27.449c0,0 -20.587,-1.271 -29.228,-18.045c0,0 0.255,20.078 -16.266,28.211c0,0 -6.862,-17.283 1.526,-34.565c0,0 -9.913,9.912 -31.77,6.1c0,0 2.287,-19.016 27.194,-19.675c0,0 -19.315,-10.153 -14.232,-42.004c0,0 23.382,11.101 25.415,36.517" style="fill:#ffbf8d;fill-rule:nonzero;"/><path d="M664.214,157.629c-3.061,-4.078 -5.805,-8.392 -8.2,-12.892c1.745,1.288 3.491,2.576 5.237,3.865c-3.71,-4.591 -8.19,-8.556 -13.197,-11.681c7.899,-2.317 16.146,-3.446 24.378,-3.334c-0.667,0.252 -1.505,-0.121 -1.763,-0.786c2.337,-0.737 4.791,-1.104 7.242,-1.081c-7.149,0.895 -14.549,-3.07 -21.424,-0.915c-2.715,0.851 -5.221,2.637 -8.068,2.616c2.929,-4.665 5.626,-9.475 8.077,-14.407l-2.628,2.302c3.238,-3.865 6.17,-7.985 8.762,-12.31c-0.286,0.478 -1.606,0.974 -2.094,1.292c-0.81,0.53 -1.606,1.085 -2.384,1.663c-1.496,1.11 -2.928,2.307 -4.29,3.581c-2.721,2.546 -5.157,5.399 -7.245,8.487c-0.636,0.941 -1.305,1.915 -1.817,2.931c-0.346,0.688 -0.262,1.395 -0.535,2.055c-0.763,1.84 -2.887,0.666 -3.954,-0.21c-2.595,-2.128 -5.049,-4.427 -7.34,-6.879c0.599,1.638 1.562,3.14 2.799,4.37c-1.949,-1.213 -3.315,-3.148 -4.615,-5.04c-1.744,-2.538 -3.464,-5.093 -5.161,-7.664c-1.951,-2.957 -3.887,-5.967 -5.09,-9.3c0.754,4.173 2.096,8.239 3.975,12.041c-0.954,-0.969 -1.592,-2.245 -1.795,-3.589c1.493,4.439 4.128,8.385 7.195,11.888c1.58,1.804 3.278,3.501 5.03,5.137c1.501,1.401 3.341,2.533 3.75,4.665c-2.448,0.672 -5.099,0.897 -7.595,1.438c-2.459,0.533 -4.901,1.138 -7.325,1.815c-1.904,0.532 -3.949,1.216 -5.047,2.862c0.55,-0.39 1.1,-0.779 1.649,-1.169c-1.201,0.646 -2.364,1.364 -3.48,2.147c6.207,-3.171 13.338,-3.882 20.277,-4.538c-1.189,-0.373 -2.58,0.006 -3.416,0.93l6.574,0.435c-2.25,4.361 -3.907,9.026 -4.913,13.829c-0.584,2.791 -0.943,5.725 -0.161,8.467c0.261,-1.48 0.521,-2.96 0.781,-4.44c0.024,2.287 0.048,4.574 0.073,6.861c-0.497,-3.492 0.455,-7.037 1.801,-10.297c1.346,-3.261 3.091,-6.352 4.301,-9.665c0.517,-1.416 1.031,-2.993 2.324,-3.767c0.796,-0.478 4.651,2.369 5.323,2.865c1.709,1.261 3.006,2.791 4.402,4.369c3.233,3.653 6.428,7.337 9.587,11.053" style="fill:#f9986e;fill-rule:nonzero;"/><path d="M635.506,128.361c0.304,0.487 0.761,0.876 1.289,1.1c-2.653,-2.494 -5.055,-5.255 -7.156,-8.228c2.408,3.373 5.749,5.945 9.039,8.466c0.91,0.698 1.865,1.416 2.992,1.632c1.314,0.253 2.684,-0.229 3.772,-1.009c1.087,-0.779 1.941,-1.835 2.781,-2.876c-0.118,0.142 -0.352,0.168 -0.499,0.056c1.547,-2.904 3.577,-5.551 5.982,-7.796c-0.391,0.176 -0.726,0.478 -0.943,0.85c0.84,-1.299 1.68,-2.598 2.518,-3.898c-1.803,2.95 -3.608,5.9 -5.412,8.849c-0.553,0.904 -1.109,1.816 -1.471,2.812c0.698,-1.206 1.666,-2.254 2.812,-3.045c-1.634,1.889 -3.011,4.003 -4.077,6.262c-0.361,0.763 -0.693,1.598 -0.546,2.429c0.974,0.457 2.03,-0.327 3.027,-0.73c1.885,-0.763 4.095,-0.144 6.014,-0.817c-1.997,0.57 -4.06,1.173 -5.649,2.51c4.696,-1.409 9.577,-2.205 14.477,-2.362c-3.665,-0.873 -7.318,1.15 -11.007,1.917c-2.317,0.481 -4.886,0.532 -6.712,2.039c2.729,1.764 5.221,3.892 7.391,6.311c-2.619,-2.031 -5.48,-3.749 -8.504,-5.108c-0.186,-0.084 -0.389,-0.169 -0.591,-0.126c-0.177,0.037 -0.319,0.168 -0.45,0.296c-2.758,2.696 -4.671,6.118 -6.545,9.488c1.406,-3.668 4.119,-6.938 4.385,-10.857c-2.083,0.343 -4.204,0.463 -6.313,0.356c1.257,0.064 5.323,-1.203 4.652,-2.883c-0.372,-0.93 -1.846,-1.992 -2.535,-2.729c-0.908,-0.97 -1.815,-1.939 -2.721,-2.909" style="fill:#ef754b;fill-rule:nonzero;"/><path d="M640.696,133.136c0,0 2.542,-5.846 7.116,-3.558c4.575,2.287 0.509,10.166 -3.557,9.658c-4.067,-0.509 -4.741,-4.197 -3.559,-6.1" style="fill:#e85d81;fill-rule:nonzero;"/><path d="M643.526,134.153c-9.229,-6.951 -10.547,-15.959 -10.547,-15.959" style="fill:none;fill-rule:nonzero;stroke:#e85d81;stroke-width:0.85px;"/><path d="M645.004,133.136c-0.379,-10.328 0,-39.552 0,-39.552" style="fill:none;fill-rule:nonzero;stroke:#e85d81;stroke-width:0.85px;"/><path d="M647.921,133.136c5.493,-10.328 10.547,-31.422 10.547,-31.422" style="fill:none;fill-rule:nonzero;stroke:#e85d81;stroke-width:0.85px;"/><path d="M656.49,168.292c5.493,18.677 9.009,64.6 9.668,78.223" style="fill:none;fill-rule:nonzero;stroke:#006852;stroke-width:1.69px;"/><path d="M621.394,203.896c9.144,20.48 31.196,19.932 44.764,33.28" style="fill:none;fill-rule:nonzero;stroke:#006852;stroke-width:0.85px;"/><path d="M635.109,217.976c-4.755,-11.886 -0.914,-19.931 0,-24.137c0,0 4.389,19.017 0,24.137" style="fill:#006852;fill-rule:nonzero;"/><path d="M645.592,224.493c-9.092,7.024 -16.98,5.686 -20.836,5.93c0,0 15.338,-8.46 20.836,-5.93" style="fill:#006852;fill-rule:nonzero;"/><path d="M625.698,211.055c1.548,-12.462 -10.154,-19.411 -12.349,-27.822c0,0 -4.558,17.61 12.349,27.822" style="fill:#006852;fill-rule:nonzero;"/><path d="M671.05,200.345c2.076,-20.297 25.829,-39.242 30.029,-58.776" style="fill:none;fill-rule:nonzero;stroke:#006852;stroke-width:0.85px;"/><path d="M701.079,135.478c0,6.091 -12.683,30.677 -12.683,30.677c0,0 9.953,-4.211 13.524,-14.083c3.57,-9.873 -0.841,-16.594 -0.841,-16.594" style="fill:#006852;fill-rule:nonzero;"/><path d="M635.848,118.194c0,1.584 -1.284,2.868 -2.869,2.868c-1.584,0 -2.868,-1.284 -2.868,-2.868c0,-1.584 1.284,-2.869 2.868,-2.869c1.585,0 2.869,1.285 2.869,2.869" style="fill:#516b51;fill-rule:nonzero;"/><path d="M647.872,93.585c0,1.584 -1.284,2.868 -2.868,2.868c-1.584,0 -2.868,-1.284 -2.868,-2.868c0,-1.584 1.284,-2.869 2.868,-2.869c1.584,0 2.868,1.285 2.868,2.869" style="fill:#516b51;fill-rule:nonzero;"/><path d="M661.337,101.714c0,1.584 -1.284,2.868 -2.869,2.868c-1.584,0 -2.868,-1.284 -2.868,-2.868c0,-1.584 1.284,-2.869 2.868,-2.869c1.585,0 2.869,1.285 2.869,2.869" style="fill:#516b51;fill-rule:nonzero;"/><path d="M669.995,199.336c-6.089,-7.973 -4.684,-22.271 -1.739,-26.819c0,0 9.423,8.843 6.813,25.079c0,0 0.579,-13.503 23.485,-18.204c0,0 -1.161,17.19 -20.006,20.959c0,0 17.541,-0.435 26.964,11.887c0,0 -10.148,5.261 -27.544,-4.836c0,0 6.379,12.374 0.435,24.551c0,0 -11.017,-6.089 -8.988,-22.47c0,0 -5.035,12.757 -19.696,12.757c0,0 1.576,-14.061 14.333,-18.555c0,0 -13.337,-2.465 -17.397,-14.062c0,0 15.077,-3.479 23.34,9.713" style="fill:#ffbf8d;fill-rule:nonzero;"/><path d="M675.148,202.235c0,1.376 -1.115,2.492 -2.492,2.492c-1.376,0 -2.492,-1.116 -2.492,-2.492c0,-1.376 1.116,-2.492 2.492,-2.492c1.377,0 2.492,1.116 2.492,2.492" style="fill:#e85d81;fill-rule:nonzero;"/><path d="M608.277,126.815c-5.896,-8.931 -6.428,-16.894 -5.958,-23.35l5.958,23.35Z" style="fill:#004736;fill-rule:nonzero;"/><path d="M610.52,137.314c-5.902,-3.613 -11.58,-4.177 -11.58,-4.177l11.58,4.177Z" style="fill:#004736;fill-rule:nonzero;"/><path d="M693.175,160.709c0,0 5.918,-9.361 7.103,-15.495c0,0 0.429,9.146 -7.103,15.495" style="fill:#004736;fill-rule:nonzero;"/><path d="M623.798,207.403c-1.873,-7.705 -7.618,-14.074 -7.618,-14.074c0,0 3.122,9.039 7.618,14.074" style="fill:#004736;fill-rule:nonzero;"/><path d="M635.174,215.435c-0.635,-4.372 0,-11.539 0,-11.539c0,0 1.76,6.293 0,11.539" style="fill:#004736;fill-rule:nonzero;"/><path d="M642.282,225.052c-6.744,1.374 -9.504,3.247 -9.504,3.247c0,0 6.507,0.5 9.504,-3.247" style="fill:#004736;fill-rule:nonzero;"/><path d="M679.542,194.786c0.251,-0.23 0.503,-0.458 0.757,-0.685c2.129,-1.905 4.347,-3.707 6.563,-5.508l5.573,-4.53c-1.452,2.139 -3.129,4.123 -4.997,5.91c1.317,-1.165 2.519,-2.458 3.584,-3.856c-3.405,4.096 -6.874,8.252 -11.299,11.217c-1.618,1.084 -3.122,1.944 -3.823,3.823c-0.081,0.22 -0.146,0.468 -0.055,0.685c0.095,0.229 0.337,0.357 0.562,0.463c5.336,2.493 11.822,2.651 16.333,6.439c-1.94,-0.664 -3.937,-1.163 -5.962,-1.492c2.531,1.013 4.961,2.273 7.247,3.756c-0.568,-0.369 -1.774,-0.404 -2.445,-0.597c-0.856,-0.248 -1.702,-0.528 -2.542,-0.828c-1.733,-0.619 -3.434,-1.323 -5.145,-2.002c-1.699,-0.673 -3.408,-1.327 -5.163,-1.842c-1.042,-0.307 -3.064,-1.68 -3.42,0.127c-0.137,0.688 -0.217,1.388 -0.205,2.089c0.024,1.552 0.49,3.047 0.649,4.583c0.162,1.561 -0.108,2.875 0.448,4.405c-0.309,-0.848 -0.619,-1.697 -0.929,-2.545c0.944,4.179 1.503,8.445 1.669,12.725c-1.252,-4.729 -2.545,-9.448 -3.878,-14.156c0.005,1.477 -0.216,2.954 -0.656,4.365c-0.311,-4.017 -0.622,-8.034 -0.933,-12.051c-4.388,2.379 -8.946,4.906 -11.757,9.031c0.245,-0.321 0.49,-0.643 0.734,-0.964c-1.65,1.421 -3.301,2.843 -4.952,4.265c3.498,-4.523 7.311,-8.803 11.401,-12.798c-1.724,0.968 -3.449,1.936 -5.173,2.904c2.514,-1.726 5.028,-3.452 7.542,-5.177c-3.356,-0.451 -6.649,-1.361 -9.759,-2.697c0.703,0.053 1.406,0.107 2.109,0.159c-2.333,-1.634 -4.666,-3.269 -6.999,-4.904c5.644,1.272 11.114,3.312 16.212,6.047c0.053,-2.563 -0.509,-5.136 -1.625,-7.444c0.434,0.587 0.867,1.173 1.301,1.759c-0.256,-4.012 -0.512,-8.024 -0.768,-12.036c0.94,5.02 1.879,10.04 2.819,15.059c0.386,-0.624 0.773,-1.248 1.16,-1.871c-0.219,0.354 -0.359,3.169 0.128,3.36c0.207,0.082 0.439,-0.013 0.632,-0.125c1.029,-0.599 1.792,-1.884 2.636,-2.737c0.788,-0.796 1.6,-1.569 2.426,-2.326" style="fill:#f9986e;fill-rule:nonzero;"/><path d="M672.906,210.051c0.181,-0.224 0.238,-0.54 0.149,-0.812c0.205,0.982 0.545,1.937 1.007,2.828c-0.133,-2.917 -0.301,-5.832 -0.504,-8.745c0.06,0.35 0.12,0.701 0.18,1.051c-0.106,-0.287 0.12,-0.614 0.408,-0.716c0.288,-0.103 0.608,-0.038 0.9,0.054c0.398,0.126 0.782,0.3 1.138,0.518c0.277,0.169 0.544,0.367 0.858,0.454c0.341,0.094 0.703,0.047 1.056,0.024c0.81,-0.053 1.628,0.028 2.412,0.239c-1.766,-0.335 -3.48,-0.947 -5.058,-1.806c-0.34,-0.185 -0.693,-0.403 -0.851,-0.756c-0.313,-0.701 0.291,-1.447 0.846,-1.977c3.071,-2.931 6.144,-5.863 9.215,-8.794c-2.055,1.707 -4.11,3.414 -6.163,5.121c-0.992,0.824 -1.985,1.65 -2.913,2.544c-0.619,0.596 -1.222,1.231 -1.977,1.641c-0.155,0.084 -0.325,0.16 -0.501,0.147c-0.421,-0.032 -0.632,-0.517 -0.722,-0.93c-0.173,-0.796 -0.237,-1.617 -0.186,-2.431c0.037,-0.597 0.108,-1.277 -0.3,-1.715c-0.145,0.453 -0.131,0.956 0.041,1.399c-0.506,-2.179 -0.893,-4.385 -1.161,-6.607c0.409,3.541 0.817,7.082 1.227,10.623c0.053,0.465 0.08,1.009 -0.266,1.326c-0.895,-0.448 -1.607,-1.191 -2.47,-1.698c-0.659,-0.388 -1.391,-0.63 -2.118,-0.869c-1.464,-0.482 -2.927,-0.964 -4.391,-1.446c0.706,-0.034 1.387,0.234 2.041,0.5c1.795,0.73 3.583,1.475 5.365,2.235c0.543,0.232 1.118,0.493 1.426,0.995c0.059,0.097 0.108,0.212 0.076,0.321c-0.037,0.123 -0.164,0.193 -0.279,0.251c-2.419,1.224 -4.608,2.902 -6.419,4.919c0.86,-0.807 1.815,-1.511 2.839,-2.094c-1.269,1.119 -2.642,2.121 -4.095,2.99c1.423,-1.228 3.066,-2.201 4.827,-2.859c1.233,-0.461 2.404,-0.834 3.414,-1.711c0.334,0.734 0.288,1.869 0.412,2.693c0.156,1.034 0.336,2.066 0.537,3.093" style="fill:#ef754b;fill-rule:nonzero;"/><path d="M671.235,201.806c0,0 1.073,-2.467 3.004,-1.502c1.931,0.966 0.215,4.291 -1.502,4.077c-1.716,-0.215 -2.001,-1.771 -1.502,-2.575" style="fill:#e85d81;fill-rule:nonzero;"/><path d="M235.382,329.034l25.099,96.496" style="fill:none;fill-rule:nonzero;stroke:#8da577;stroke-width:1.98px;"/><path d="M222.058,322.647c-3.051,-12.773 3.51,-26.147 3.51,-26.147c0,0 10.462,5.78 10.815,17.808c0.353,12.029 -14.325,8.339 -14.325,8.339" style="fill:#d87b91;fill-rule:nonzero;"/><path d="M242.413,346.663c-1.429,10.139 -12.26,5.336 -12.26,5.336c-5.972,-4.417 -10.397,-9.198 -13.232,-14.477c-0.136,-0.237 -0.27,-0.479 -0.401,-0.725c-0.056,-0.094 -0.104,-0.191 -0.151,-0.287c-0.938,-1.893 -1.669,-3.861 -2.194,-5.882l-0.011,-0.041c-0.064,-0.289 -0.133,-0.554 -0.197,-0.799c-1.91,-8.311 -0.427,-17.776 4.64,-28.763c0,0 0.623,5.539 8.464,12.721c0.646,0.596 1.307,1.252 1.958,1.954c7.289,7.783 14.693,21.663 13.384,30.963" style="fill:#da9ba7;fill-rule:nonzero;"/><path d="M242.413,346.663c-1.429,10.139 -12.26,5.336 -12.26,5.336c-5.972,-4.417 -10.397,-9.198 -13.232,-14.477c3.993,7.007 10.018,10.422 8.652,4.115c-1.635,-7.543 3.239,-14.032 3.456,-25.937c7.289,7.783 14.693,21.663 13.384,30.963" style="fill:#d87b91;fill-rule:nonzero;"/><path d="M229.773,328.854c-0.039,0.258 -0.074,0.52 -0.105,0.784c-1.174,9.684 1.792,23.248 1.792,23.248c0,0 6.224,2.83 6.532,2.306c0.308,-0.526 1.358,-7.744 0.101,-8.734" style="fill:#d34f75;fill-rule:nonzero;"/><path d="M247.267,348.649c-11.35,15.999 -15.411,0.553 -16.872,-12.234c-0.779,-6.894 -0.813,-13.011 -0.813,-13.011c-1.491,-16.169 6.38,-18.217 4.663,-24.822c0,0 8.296,6.921 13.763,17.043c4.998,9.284 7.618,21.247 -0.741,33.024" style="fill:#da9ba7;fill-rule:nonzero;"/><path d="M247.267,348.649c-11.35,15.999 -15.411,0.553 -16.872,-12.234c1.561,3.91 5.946,8.699 12.721,7.21c6.773,-1.49 10.271,-13.06 4.881,-27.997l0.011,-0.003c4.998,9.284 7.618,21.247 -0.741,33.024" style="fill:#d87b91;fill-rule:nonzero;"/><path d="M269.085,351.106c-0.178,-0.139 -2.03,-1.478 -4.782,-2.168c-2.298,-0.579 -5.229,-0.7 -8.339,0.709c-7.042,3.183 -6.305,7.067 -6.305,7.067c0.631,12.862 -10.981,10.999 -13.428,1.597c-9.882,-6.902 -18.382,4.628 -18.734,5.123c0.161,-1.056 0.393,-2.01 0.69,-2.883c3.353,-10.322 14.037,-8.261 14.037,-8.261c-1.925,-8.449 -8.257,-11.128 -8.257,-11.128c8.854,-0.408 16.08,7.719 16.08,7.719c-0.399,-9.619 8.268,-19.252 8.812,-19.84c-4.494,6.607 -1.579,18.526 -1.579,18.526c15.655,-10.47 21.601,3.047 21.805,3.539" style="fill:#00513e;fill-rule:nonzero;"/><path d="M216.52,336.797c0.124,0.245 0.27,0.483 0.4,0.726c-0.135,-0.238 -0.269,-0.48 -0.4,-0.726" style="fill:#00513e;fill-rule:nonzero;"/><path d="M264.303,348.938c-2.298,-0.579 -5.229,-0.7 -8.339,0.709c-7.042,3.183 -6.305,7.067 -6.305,7.067c0.631,12.862 -10.981,10.999 -13.427,1.597c-9.883,-6.902 -18.383,4.628 -18.735,5.123c0.161,-1.056 0.393,-2.01 0.69,-2.883c1.441,-0.658 3.137,-2.188 6.654,-4.336c4.994,-3.053 6.647,-1.979 11.588,-0.583c4.951,1.394 7.953,4.09 9.536,-1.052c1.573,-5.14 7.68,-10.205 18.338,-5.642" style="fill:#003829;fill-rule:nonzero;"/><path d="M453.162,349.509c-0.009,6.677 -0.924,14.503 -3.838,22.255c-7.591,20.133 -26.14,27.875 -26.14,27.875c-4.554,-7.733 -6.751,-18.757 -4.809,-30.026c2.518,-14.691 12.061,-29.798 32.534,-38.549c0,0 2.263,7.78 2.253,18.445" style="fill:#005641;fill-rule:nonzero;"/><path d="M437.484,357.323c-14.004,19.256 -8.752,45.807 -23.341,64.188" style="fill:none;fill-rule:nonzero;stroke:#006852;stroke-width:0.85px;"/><path d="M430.348,371.767l8.888,-5.107" style="fill:none;fill-rule:nonzero;stroke:#006852;stroke-width:0.85px;"/><path d="M427.844,381.019l-2.029,-14.36" style="fill:none;fill-rule:nonzero;stroke:#006852;stroke-width:0.85px;"/><path d="M425.814,390.836l8.64,-7.546" style="fill:none;fill-rule:nonzero;stroke:#006852;stroke-width:0.85px;"/><g opacity="0.54"><path d="M453.162,349.509c-0.009,6.677 -0.924,14.503 -3.838,22.255c-7.591,20.133 -26.14,27.875 -26.14,27.875c-4.554,-7.733 -6.751,-18.757 -4.809,-30.026c0.765,3.707 1.849,7.988 3.376,11.873c3.536,9.015 22.877,-2.725 31.411,-31.977" style="fill:#004736;fill-rule:nonzero;"/></g><path d="M551.682,314.223c-8.166,43.189 -53.685,110.939 -53.685,110.939" style="fill:none;fill-rule:nonzero;stroke:#006852;stroke-width:1.01px;"/><path d="M548.568,325.249c0,0 -12.163,-7.698 6.49,-31.801c4.906,-6.339 9.322,-8.573 9.445,-9.483c0,0 5.27,22.563 -15.935,41.284" style="fill:#005641;fill-rule:nonzero;"/><path d="M544.767,337.704c12.818,-14.361 33.099,-12.05 33.099,-12.05c0,0 -21.044,26.481 -33.099,12.05" style="fill:#005641;fill-rule:nonzero;"/><path d="M535.105,360.05c0.363,-12.209 -18.305,-27.706 -18.305,-27.706c0,0 -0.875,20.141 18.305,27.706" style="fill:#005641;fill-rule:nonzero;"/><path d="M524.056,381.741c21.779,-16.94 36.208,-9.414 36.208,-9.414c0,0 -18.624,22.841 -36.208,9.414" style="fill:#005641;fill-rule:nonzero;"/><path d="M512.921,401.295c1.518,-16.854 -19.624,-27.47 -19.624,-27.47c0,0 3.719,23.789 19.624,27.47" style="fill:#005641;fill-rule:nonzero;"/><g opacity="0.54"><path d="M571.781,327.562c-1.93,1.132 -3.858,2.264 -5.788,3.395c-1.934,1.134 -3.885,2.277 -6.013,2.982c-3.483,1.155 -7.188,1.209 -10.556,2.765c-1.384,0.639 -2.97,1.025 -1.473,-0.622c0.933,-1.026 3.29,-1.606 4.565,-2.06c6.371,-2.268 13.427,-2.817 19.265,-6.46" style="fill:#012d21;fill-rule:nonzero;"/></g><path d="M538.823,352.562c9.22,-4.539 18.794,0.667 18.794,0.667c0,0 -15.719,8.89 -18.794,-0.667" style="fill:#005641;fill-rule:nonzero;"/><g opacity="0.54"><path d="M554.222,352.953c-1.181,0.174 -2.362,0.348 -3.544,0.521c-1.184,0.174 -2.379,0.348 -3.573,0.271c-1.955,-0.126 -3.799,-0.842 -5.778,-0.746c-0.812,0.039 -1.674,-0.088 -0.604,-0.603c0.668,-0.321 1.95,-0.135 2.672,-0.105c3.607,0.154 7.209,1.296 10.827,0.662" style="fill:#012d21;fill-rule:nonzero;"/></g><path d="M518.255,392.858c10.275,-0.186 16.724,8.6 16.724,8.6c0,0 -18.008,1.356 -16.724,-8.6" style="fill:#005641;fill-rule:nonzero;"/><g opacity="0.54"><path d="M532.024,399.765c-1.144,-0.346 -2.286,-0.69 -3.429,-1.036c-1.146,-0.347 -2.301,-0.697 -3.349,-1.276c-1.716,-0.945 -3.08,-2.377 -4.911,-3.133c-0.752,-0.311 -1.479,-0.792 -0.29,-0.802c0.74,-0.007 1.822,0.706 2.462,1.042c3.199,1.674 5.972,4.239 9.517,5.205" style="fill:#012d21;fill-rule:nonzero;"/></g><g opacity="0.54"><path d="M556.056,301.744c-0.755,3.286 -1.509,6.571 -2.264,9.856c1.835,-5.081 4.249,-9.953 7.183,-14.489c-1.043,1.612 -1.21,4.771 -1.837,6.646c-0.793,2.373 -1.721,4.701 -2.778,6.968c-0.988,2.12 -4.282,10.563 -7.034,10.329c0.202,-6.329 3.856,-13.773 6.73,-19.31" style="fill:#012d21;fill-rule:nonzero;"/></g><g opacity="0.54"><path d="M527.639,347.962c-0.941,-0.789 -1.987,-1.455 -2.855,-2.323c-0.869,-0.868 -1.565,-2.004 -1.558,-3.232c0.566,1.11 1.132,2.218 1.698,3.327c0.962,1.882 1.925,3.769 3.069,5.546c0.993,1.544 2.12,2.997 3.304,4.398c0.543,0.641 2.48,3.491 2.402,1.237c-0.047,-1.351 -1.745,-3.556 -2.453,-4.68c-0.997,-1.583 -2.169,-3.066 -3.607,-4.273" style="fill:#012d21;fill-rule:nonzero;"/></g><path d="M543.417,343.217c0.134,-4.482 -6.721,-10.173 -6.721,-10.173c0,0 -0.321,7.396 6.721,10.173" style="fill:#005641;fill-rule:nonzero;"/><g opacity="0.54"><path d="M540.676,338.778c-0.346,-0.289 -0.729,-0.534 -1.048,-0.853c-0.319,-0.319 -0.575,-0.735 -0.572,-1.186l0.624,1.222c0.352,0.691 0.706,1.383 1.126,2.036c0.365,0.566 0.778,1.1 1.214,1.614c0.199,0.235 0.91,1.282 0.881,0.454c-0.017,-0.496 -0.64,-1.305 -0.901,-1.718c-0.366,-0.581 -0.796,-1.126 -1.324,-1.569" style="fill:#012d21;fill-rule:nonzero;"/></g><path d="M528.816,372.293c-1.444,-4.245 -9.856,-7.175 -9.856,-7.175c0,0 2.288,7.039 9.856,7.175" style="fill:#005641;fill-rule:nonzero;"/><g opacity="0.54"><path d="M524.695,369.097c-0.426,-0.15 -0.871,-0.245 -1.281,-0.433c-0.41,-0.186 -0.795,-0.487 -0.951,-0.911c0.337,0.309 0.674,0.617 1.012,0.926c0.573,0.524 1.146,1.049 1.768,1.513c0.54,0.403 1.114,0.759 1.702,1.088c0.269,0.151 1.301,0.881 0.984,0.117c-0.189,-0.459 -1.056,-0.999 -1.444,-1.295c-0.547,-0.416 -1.141,-0.776 -1.79,-1.005" style="fill:#012d21;fill-rule:nonzero;"/></g><g opacity="0.54"><path d="M535.514,377.446c3.765,-0.491 7.53,-0.981 11.295,-1.473c2.011,-0.261 4.088,-0.547 5.82,-1.601c-4.417,1.589 -8.834,3.178 -13.25,4.766c-2.464,0.886 -8.11,3.824 -10.441,1.563c-2.962,-2.876 4.98,-3.047 6.576,-3.255" style="fill:#012d21;fill-rule:nonzero;"/></g><g opacity="0.54"><path d="M506.978,390.106c-2.635,-3.211 -5.648,-6.113 -8.071,-9.487c1.197,0.831 1.824,2.24 2.465,3.55c2.52,5.155 6.069,9.395 10.172,13.35c-0.941,-2.724 -2.751,-5.201 -4.566,-7.413" style="fill:#012d21;fill-rule:nonzero;"/></g><path d="M621.028,330.433c2.021,29.82 24.25,61.359 46.406,85.782c2.816,3.104 5.631,6.092 8.403,8.947" style="fill:none;fill-rule:nonzero;stroke:#006852;stroke-width:1.05px;"/><path d="M662.909,320.31c-10.626,38.492 -1.739,88.786 -1.739,88.786" style="fill:none;fill-rule:nonzero;stroke:#006852;stroke-width:1.05px;"/><path d="M630.347,323.492c10.181,-18.181 2.235,-24.096 -1.939,-15.514c0,0 1.211,-7.999 -5.576,-10.18c-6.787,-2.182 -5.333,15.513 -5.333,15.513c0,0 -0.271,-8.968 -7.771,-7.756c-7.5,1.211 -0.955,19.391 4.862,23.754c5.819,4.364 15.757,-5.817 15.757,-5.817" style="fill:#e85d81;fill-rule:nonzero;"/><path d="M629.076,322.252c0.899,-1.801 1.651,-3.675 2.246,-5.599c0.385,-1.243 0.688,-2.657 0.049,-3.791c-0.124,-0.221 -0.289,-0.43 -0.515,-0.549c-0.474,-0.249 -1.086,-0.018 -1.441,0.383c-0.356,0.402 -0.518,0.933 -0.685,1.443c-0.638,1.945 -1.477,3.824 -2.5,5.597c1.577,-3.704 1.405,-8.111 -0.458,-11.68c-0.065,-0.126 -0.141,-0.259 -0.271,-0.314c-0.289,-0.124 -0.558,0.204 -0.697,0.486c-1.372,2.77 -2.108,5.853 -2.135,8.945c0.517,-2.684 0.421,-5.483 -0.279,-8.124c-0.05,-0.191 -0.154,-0.42 -0.35,-0.418c-0.133,0.001 -0.235,0.114 -0.316,0.221c-1.607,2.132 -1.659,5.003 -2.038,7.646c-0.051,0.369 -0.182,0.814 -0.546,0.89c-0.31,0.064 -0.591,-0.191 -0.778,-0.447c-1.117,-1.526 -1.176,-3.876 -2.817,-4.817c-0.139,-0.079 -0.3,-0.146 -0.454,-0.103c-0.226,0.062 -0.323,0.324 -0.371,0.553c-0.514,2.393 0.577,4.817 0.739,7.258c-0.32,-1.682 -0.639,-3.362 -0.957,-5.044c-0.275,-1.445 -0.564,-2.931 -1.35,-4.175c-0.204,-0.322 -0.525,-0.661 -0.899,-0.586c-0.183,0.037 -0.33,0.167 -0.459,0.301c-0.909,0.949 -1.305,2.303 -1.321,3.617c-0.015,1.314 0.314,2.607 0.688,3.867c1.057,3.569 2.487,7.028 4.26,10.301c0.117,0.217 0.244,0.442 0.45,0.578c0.232,0.155 0.527,0.172 0.807,0.168c1.98,-0.026 3.855,-0.834 5.669,-1.628c0.959,-0.419 1.918,-0.838 2.876,-1.258" style="fill:#dd4776;fill-rule:nonzero;"/><path d="M617.257,336.052c7.987,5.591 16.398,-5.893 14.604,-13.323c-1.792,-7.431 -6.149,-1.891 -6.149,1.873c0,0 2.419,-8.535 -4.684,-9.304c-7.102,-0.768 -3.771,9.304 -3.771,9.304c0,0 -2.818,-6.486 -6.405,-3.41c-3.588,3.074 2.205,11.921 6.405,14.86" style="fill:#ffbf8d;fill-rule:nonzero;"/><g opacity="0.29"><path d="M620.076,336.925c-2.273,-1.521 -3.82,-3.887 -5.276,-6.203c-0.232,-0.369 -0.469,-0.754 -0.523,-1.187c-0.053,-0.433 0.134,-0.927 0.538,-1.09c0.318,-0.128 0.679,-0.027 0.993,0.107c1.707,0.729 2.864,2.319 3.932,3.838c-0.129,-1.213 -0.259,-2.425 -0.389,-3.637c-0.062,-0.586 -0.123,-1.191 0.052,-1.754c0.175,-0.562 0.652,-1.075 1.239,-1.101c0.308,1.571 0.616,3.143 0.923,4.715c-0.094,-0.822 -0.189,-1.663 0.004,-2.465c0.194,-0.804 0.736,-1.576 1.529,-1.804c0.239,-0.069 0.52,-0.078 0.71,0.081c0.166,0.14 0.219,0.37 0.253,0.585c0.242,1.516 -0.001,3.104 -0.682,4.479c0.344,-0.991 0.968,-1.883 1.778,-2.549c0.211,-0.173 0.461,-0.339 0.732,-0.314c0.361,0.033 0.612,0.41 0.63,0.773c0.019,0.362 -0.137,0.708 -0.296,1.034c-0.46,0.944 -0.977,1.86 -1.549,2.742l1.661,-1.128c0.175,-0.119 0.402,-0.241 0.584,-0.132c0.147,0.09 0.178,0.288 0.179,0.46c0.006,1.13 -0.671,2.175 -1.549,2.886c-0.878,0.71 -1.944,1.141 -2.992,1.561c-0.655,0.263 -1.624,0.403 -1.871,-0.259" style="fill:#e85d81;fill-rule:nonzero;"/></g><path d="M680.948,322.945c26.104,-18.413 19.027,-31.849 7.577,-22.74c0,0 6.967,-10.263 -0.978,-17.769c-7.945,-7.506 -17.635,17.931 -17.635,17.931c0,0 5.556,-12.584 -5.619,-15.867c-11.175,-3.284 -14.146,26.189 -8.985,36.072c5.161,9.882 25.64,2.373 25.64,2.373" style="fill:#e85d81;fill-rule:nonzero;"/><path d="M680.011,320.39c2.435,-1.896 4.714,-3.992 6.809,-6.258c1.354,-1.465 2.708,-3.221 2.576,-5.212c-0.027,-0.389 -0.116,-0.787 -0.35,-1.1c-0.491,-0.659 -1.49,-0.743 -2.247,-0.422c-0.757,0.32 -1.333,0.947 -1.901,1.541c-2.169,2.268 -4.573,4.312 -7.159,6.09c4.63,-4.081 7.305,-10.291 7.091,-16.46c-0.007,-0.216 -0.025,-0.45 -0.169,-0.614c-0.317,-0.361 -0.906,-0.086 -1.285,0.211c-3.729,2.925 -6.786,6.703 -8.868,10.961c2.489,-3.369 4.208,-7.304 4.987,-11.421c0.057,-0.295 0.065,-0.682 -0.209,-0.81c-0.184,-0.086 -0.4,0.003 -0.582,0.097c-3.633,1.887 -5.603,5.823 -7.875,9.23c-0.316,0.475 -0.79,1.004 -1.344,0.868c-0.472,-0.116 -0.692,-0.655 -0.782,-1.132c-0.535,-2.85 0.937,-6.138 -0.71,-8.525c-0.139,-0.202 -0.318,-0.402 -0.559,-0.444c-0.354,-0.063 -0.661,0.235 -0.881,0.519c-2.291,2.971 -2.385,7.044 -3.776,10.527c0.671,-2.536 1.34,-5.072 2.011,-7.608c0.577,-2.182 1.159,-4.426 0.895,-6.667c-0.068,-0.581 -0.289,-1.262 -0.857,-1.406c-0.276,-0.069 -0.567,0.013 -0.834,0.113c-1.884,0.712 -3.326,2.322 -4.216,4.13c-0.892,1.808 -1.291,3.813 -1.609,5.803c-0.898,5.635 -1.207,11.365 -0.92,17.065c0.02,0.378 0.046,0.773 0.241,1.097c0.218,0.368 0.616,0.587 1.004,0.765c2.757,1.274 5.885,1.397 8.92,1.5c1.603,0.053 3.206,0.107 4.81,0.161" style="fill:#dd4776;fill-rule:nonzero;"/><path d="M654.536,331.66c7.352,13.016 26.578,2.694 29.012,-8.77c2.433,-11.463 -7.255,-6.681 -9.744,-1.475c0,0 8.99,-10.206 -0.326,-15.966c-9.315,-5.761 -11.37,10.374 -11.37,10.374c0,0 0.391,-10.834 -6.604,-8.953c-6.994,1.88 -4.833,17.947 -0.968,24.79" style="fill:#ffbf8d;fill-rule:nonzero;"/><g opacity="0.29"><path d="M657.858,334.732c-2.139,-3.608 -2.713,-7.903 -3.194,-12.069c-0.077,-0.664 -0.151,-1.354 0.062,-1.988c0.213,-0.633 0.797,-1.194 1.465,-1.152c0.522,0.032 0.955,0.412 1.302,0.806c1.88,2.136 2.427,5.101 2.901,7.908c0.622,-1.763 1.245,-3.526 1.867,-5.287c0.301,-0.852 0.617,-1.73 1.231,-2.392c0.614,-0.662 1.612,-1.056 2.443,-0.704c-0.614,2.377 -1.227,4.754 -1.842,7.131c0.411,-1.197 0.837,-2.423 1.635,-3.406c0.799,-0.984 2.059,-1.693 3.308,-1.484c0.376,0.063 0.77,0.236 0.928,0.582c0.138,0.303 0.059,0.657 -0.036,0.976c-0.67,2.256 -2.054,4.293 -3.906,5.744c1.132,-1.143 2.583,-1.966 4.146,-2.351c0.405,-0.1 0.861,-0.164 1.219,0.051c0.477,0.285 0.575,0.973 0.361,1.486c-0.214,0.512 -0.658,0.888 -1.093,1.234c-1.261,1.002 -2.583,1.928 -3.957,2.769l3.044,-0.463c0.32,-0.048 0.716,-0.066 0.893,0.205c0.146,0.22 0.058,0.516 -0.054,0.756c-0.74,1.565 -2.369,2.562 -4.052,2.964c-1.685,0.403 -3.442,0.294 -5.17,0.183c-1.081,-0.07 -2.513,-0.519 -2.417,-1.597" style="fill:#e85d81;fill-rule:nonzero;"/></g><path d="M658.972,384.043c2.237,-17.008 18.334,-25.479 18.334,-25.479c0,0 -2.216,30.061 -18.334,25.479" style="fill:#005641;fill-rule:nonzero;"/><path d="M633.329,371.71c-5.311,-8.317 -24.823,-10.176 -24.823,-10.176c0,0 8.575,13.848 24.823,10.176" style="fill:#005641;fill-rule:nonzero;"/><g opacity="0.54"><path d="M673.781,363.022c-0.853,1.801 -1.706,3.603 -2.56,5.403c-0.855,1.806 -1.719,3.626 -2.932,5.213c-1.987,2.599 -4.689,4.497 -6.389,7.332c-0.699,1.165 -1.674,2.245 -1.396,0.281c0.172,-1.224 1.617,-2.833 2.329,-3.807c3.555,-4.866 8.475,-8.811 10.948,-14.422" style="fill:#012d21;fill-rule:nonzero;"/></g><g opacity="0.54"><path d="M622.847,367.034c-0.987,-0.099 -1.989,-0.067 -2.964,-0.253c-0.974,-0.184 -1.956,-0.626 -2.51,-1.449c0.883,0.483 1.765,0.966 2.648,1.449c1.498,0.819 2.999,1.641 4.571,2.308c1.365,0.579 2.778,1.037 4.206,1.433c0.654,0.182 3.243,1.204 2.166,-0.265c-0.645,-0.881 -2.781,-1.581 -3.765,-2.01c-1.386,-0.604 -2.843,-1.062 -4.352,-1.213" style="fill:#012d21;fill-rule:nonzero;"/></g><path d="M643.488,386.059c-4.032,-7.298 2.462,-22.534 2.462,-22.534c0,0 6.82,11.954 -2.462,22.534" style="fill:#005641;fill-rule:nonzero;"/><g opacity="0.54"><path d="M644.247,376.39c0.325,-0.772 0.752,-1.504 1.008,-2.302c0.256,-0.798 0.324,-1.705 -0.063,-2.448c0.002,0.851 0.005,1.7 0.007,2.551c0.004,1.442 0.009,2.888 -0.131,4.324c-0.121,1.248 -0.351,2.481 -0.633,3.701c-0.129,0.56 -0.416,2.894 -1.072,1.501c-0.393,-0.835 -0.051,-2.702 0.029,-3.606c0.11,-1.273 0.358,-2.539 0.855,-3.721" style="fill:#012d21;fill-rule:nonzero;"/></g><path d="M653.499,398.561c-7.819,-6.021 -26.804,-1.142 -26.804,-1.142c0,0 12.769,10.113 26.804,1.142" style="fill:#005641;fill-rule:nonzero;"/><g opacity="0.54"><path d="M642.052,397.722c-0.963,0.242 -1.894,0.612 -2.874,0.769c-0.979,0.157 -2.052,0.075 -2.853,-0.511c0.995,0.155 1.989,0.309 2.983,0.464c1.687,0.262 3.378,0.525 5.083,0.618c1.481,0.081 2.966,0.032 4.443,-0.08c0.677,-0.051 3.46,0.031 1.947,-0.986c-0.906,-0.609 -3.153,-0.543 -4.224,-0.611c-1.509,-0.097 -3.034,-0.033 -4.505,0.337" style="fill:#012d21;fill-rule:nonzero;"/></g><path d="M656.776,358.245c-0.717,-5.725 -10.553,-11.604 -10.553,-11.604c0,0 1.053,9.464 10.553,11.604" style="fill:#005641;fill-rule:nonzero;"/><g opacity="0.54"><path d="M652.415,353.145c-0.496,-0.3 -1.033,-0.535 -1.501,-0.878c-0.469,-0.342 -0.876,-0.821 -0.962,-1.394l1.034,1.429c0.585,0.809 1.172,1.619 1.834,2.365c0.576,0.649 1.207,1.246 1.862,1.813c0.299,0.261 1.41,1.45 1.211,0.404c-0.121,-0.628 -1.073,-1.533 -1.485,-2.007c-0.58,-0.666 -1.234,-1.273 -1.993,-1.732" style="fill:#012d21;fill-rule:nonzero;"/></g></g></svg>