<svg xmlns="http://www.w3.org/2000/svg" width="208" height="58" fill="none"><path fill="#fff" d="M12.74 29.047H2.53c-1.207 0-1.813 0-2.186.386-.375.387-.36.985-.33 2.178a32.63 32.63 0 0 0 .263 3.633c.07.499.104.75.268.877.163.13.46.093 1.054.025 3.292-.386 6.474 2.302 6.474 5.83a5.917 5.917 0 0 1-1.963 4.415c-.44.395-.66.592-.677.798-.017.206.146.4.462.787a25.741 25.741 0 0 0 3.859 3.802c.338.268.505.4.688.395.184-.006.372-.172.748-.508a5.682 5.682 0 0 1 3.807-1.46c3.128 0 5.633 2.617 5.766 5.652.02.505.03.756.155.894.121.135.33.17.747.231 2.468.362 4.974.362 7.441 0 .418-.065.626-.096.748-.231.124-.138.135-.39.155-.894.132-3.035 2.637-5.653 5.765-5.653 1.458 0 2.792.55 3.808 1.459.375.338.564.507.747.51.184.003.353-.127.689-.395a26.013 26.013 0 0 0 3.858-3.802c.316-.386.477-.581.46-.79-.017-.206-.237-.403-.677-.795a5.924 5.924 0 0 1-1.96-4.414c0-3.53 3.181-6.217 6.473-5.83.592.067.891.104 1.055-.026.164-.127.197-.378.268-.875.163-1.21.234-2.42.262-3.635.029-1.193.045-1.791-.33-2.178-.372-.386-.978-.386-2.186-.386h-10.21C37.447 35.636 32.009 40.8 25.386 40.8c-6.623 0-12.061-5.161-12.645-11.753Zm-1.457 0h28.206-28.206Zm14.103 0V12.123v16.924Zm-.73-12.013c1.548-4.338.637-9.303-2.762-12.702C18.495.934 13.53.022 9.195 1.568c-1.548 4.341-.637 9.308 2.762 12.704 3.399 3.4 8.363 4.31 12.701 2.764m1.337 5.76c-1.292-3.613-.533-7.75 2.302-10.585 2.834-2.835 6.967-3.591 10.583-2.3 1.291 3.614.533 7.752-2.3 10.586-2.831 2.835-6.972 3.591-10.585 2.3Zm39.441 23.751V11.47H78.28c2.489 0 4.55.411 6.183 1.233 1.632.811 2.854 1.913 3.665 3.306.81 1.381 1.216 2.94 1.216 4.675 0 1.462-.269 2.695-.805 3.7a6.628 6.628 0 0 1-2.158 2.398 9.507 9.507 0 0 1-2.946 1.301v.343c1.165.057 2.3.434 3.408 1.13 1.12.685 2.044 1.662 2.775 2.929.73 1.267 1.096 2.809 1.096 4.624 0 1.793-.422 3.403-1.267 4.83-.834 1.416-2.124 2.54-3.871 3.374-1.747.822-3.98 1.233-6.697 1.233H65.436Zm5.292-4.539h7.639c2.534 0 4.35-.49 5.446-1.473 1.096-.981 1.644-2.209 1.644-3.682 0-1.107-.28-2.124-.84-3.048-.559-.925-1.358-1.662-2.397-2.21-1.028-.548-2.25-.822-3.665-.822h-7.827v11.235Zm0-15.362h7.09c1.188 0 2.255-.229 3.203-.685.96-.457 1.719-1.096 2.278-1.919.571-.833.856-1.815.856-2.945 0-1.45-.508-2.667-1.524-3.648-1.016-.982-2.575-1.473-4.675-1.473h-7.228v10.67Zm23.71 19.9V20.24h5.12v26.307h-5.12Zm2.585-30.365c-.89 0-1.655-.297-2.294-.89-.629-.606-.942-1.325-.942-2.158 0-.845.313-1.565.941-2.158a3.222 3.222 0 0 1 2.296-.908c.89 0 1.65.303 2.277.908.64.593.959 1.313.959 2.158 0 .833-.32 1.553-.959 2.158-.628.593-1.387.89-2.278.89Zm18.362 30.897c-2.466 0-4.619-.565-6.457-1.696-1.838-1.13-3.265-2.712-4.282-4.744-1.016-2.032-1.524-4.407-1.524-7.125 0-2.728.508-5.115 1.524-7.158 1.017-2.044 2.444-3.631 4.282-4.762 1.838-1.13 3.991-1.695 6.457-1.695 2.466 0 4.618.565 6.457 1.695 1.838 1.13 3.265 2.718 4.281 4.762 1.017 2.043 1.525 4.43 1.525 7.158 0 2.718-.508 5.093-1.525 7.125-1.016 2.032-2.443 3.614-4.281 4.744-1.839 1.13-3.991 1.696-6.457 1.696Zm.017-4.299c1.599 0 2.923-.423 3.973-1.267 1.051-.845 1.827-1.97 2.33-3.374.513-1.405.77-2.952.77-4.642 0-1.678-.257-3.22-.77-4.624-.503-1.416-1.279-2.552-2.33-3.408-1.05-.856-2.374-1.285-3.973-1.285-1.61 0-2.946.429-4.008 1.285-1.05.856-1.832 1.992-2.346 3.408-.502 1.404-.754 2.946-.754 4.624 0 1.69.252 3.237.754 4.642.514 1.404 1.296 2.529 2.346 3.374 1.062.844 2.398 1.267 4.008 1.267Zm26.848 14.18c-2.09 0-3.888-.273-5.395-.821-1.496-.548-2.718-1.273-3.665-2.175-.948-.902-1.656-1.89-2.124-2.963l4.402-1.816c.308.503.719 1.034 1.233 1.593.525.571 1.233 1.056 2.123 1.456.902.4 2.061.6 3.477.6 1.941 0 3.545-.474 4.813-1.422 1.267-.936 1.901-2.432 1.901-4.487V41.75h-.326c-.308.56-.753 1.182-1.335 1.867-.571.685-1.359 1.279-2.364 1.781-1.005.503-2.312.754-3.922.754-2.078 0-3.951-.485-5.618-1.456-1.655-.982-2.968-2.426-3.939-4.333-.959-1.918-1.438-4.276-1.438-7.073 0-2.798.474-5.195 1.421-7.193.959-1.998 2.272-3.528 3.939-4.59 1.667-1.074 3.557-1.61 5.669-1.61 1.633 0 2.952.274 3.957.822 1.004.536 1.786 1.164 2.346 1.884.571.72 1.01 1.353 1.319 1.9h.376V20.24h5.019v26.89c0 2.26-.526 4.115-1.576 5.565-1.051 1.45-2.472 2.524-4.265 3.22-1.781.697-3.79 1.045-6.028 1.045Zm-.052-15.053c1.473 0 2.718-.343 3.734-1.028 1.028-.697 1.804-1.69 2.329-2.98.537-1.302.805-2.86.805-4.676 0-1.77-.262-3.328-.788-4.675-.525-1.348-1.296-2.398-2.312-3.152-1.016-.765-2.272-1.147-3.768-1.147-1.541 0-2.826.4-3.853 1.199-1.028.788-1.804 1.86-2.329 3.22-.514 1.358-.771 2.877-.771 4.555 0 1.724.263 3.237.788 4.539.525 1.301 1.301 2.318 2.329 3.048 1.039.731 2.318 1.097 3.836 1.097Zm24.301 5.223c-1.667 0-3.175-.308-4.522-.925-1.347-.628-2.415-1.535-3.203-2.723-.776-1.187-1.164-2.643-1.164-4.367 0-1.484.285-2.706.856-3.665a6.324 6.324 0 0 1 2.312-2.278 12.08 12.08 0 0 1 3.254-1.267 32.401 32.401 0 0 1 3.665-.651l3.837-.446c.982-.125 1.695-.325 2.141-.599.445-.274.668-.72.668-1.336v-.12c0-1.495-.423-2.654-1.268-3.476-.833-.823-2.078-1.234-3.733-1.234-1.725 0-3.083.383-4.077 1.148-.982.753-1.661 1.593-2.038 2.517l-4.812-1.096c.571-1.598 1.404-2.888 2.5-3.87a10.15 10.15 0 0 1 3.819-2.158 14.915 14.915 0 0 1 4.539-.685c1.05 0 2.164.125 3.34.377a9.773 9.773 0 0 1 3.322 1.335c1.039.651 1.89 1.582 2.552 2.792.662 1.199.994 2.757.994 4.676v17.469h-5.001V42.95h-.206c-.331.662-.828 1.313-1.49 1.953-.662.64-1.513 1.17-2.552 1.593-1.039.422-2.283.633-3.733.633Zm1.113-4.11c1.416 0 2.626-.28 3.631-.84 1.016-.559 1.787-1.29 2.312-2.192.536-.913.805-1.89.805-2.928v-3.391c-.183.182-.537.354-1.062.513a16.55 16.55 0 0 1-1.764.394c-.662.103-1.308.2-1.936.291-.628.08-1.153.149-1.575.206a12.7 12.7 0 0 0-2.723.634c-.811.296-1.462.725-1.953 1.284-.479.548-.719 1.279-.719 2.192 0 1.268.468 2.227 1.404 2.878.937.64 2.13.959 3.58.959ZM188.2 20.24l5.806 10.242 5.857-10.242h5.6l-8.203 13.154 8.272 13.153h-5.601l-5.925-9.83-5.909 9.83h-5.618l8.187-13.153-8.084-13.154h5.618Z"/></svg>