<svg xmlns="http://www.w3.org/2000/svg" width="33" height="33" fill="none"><g clip-path="url(#a)"><g clip-path="url(#b)"><g fill="#fff" clip-path="url(#c)"><path d="M29.603 23.29a.937.937 0 1 0-.902 1.643c1.117.613 1.757 1.293 1.757 1.866 0 .7-.992 1.785-3.776 2.73-2.75.935-6.426 1.45-10.349 1.45s-7.599-.515-10.35-1.45C3.2 28.584 2.208 27.5 2.208 26.8c0-.573.64-1.253 1.757-1.866a.939.939 0 0 0-.903-1.644C1.817 23.973.333 25.14.333 26.8c0 1.273.876 3.09 5.048 4.506 2.94.998 6.83 1.548 10.952 1.548 4.123 0 8.013-.55 10.952-1.55 4.172-1.414 5.048-3.23 5.048-4.503 0-1.66-1.484-2.827-2.73-3.51Z"/><path d="M9.26 28.17c1.902.54 4.416.836 7.077.836 2.661 0 5.175-.296 7.078-.834 2.328-.658 3.51-1.61 3.51-2.83s-1.18-2.172-3.51-2.83a18.345 18.345 0 0 0-1.677-.383c-.324.56-.664 1.138-1.02 1.732.662.1 1.283.22 1.847.365 1.713.436 2.34.927 2.468 1.116-.129.19-.755.68-2.468 1.117-1.622.413-3.709.649-5.906.67-.214.016-.43.016-.644 0-2.198-.021-4.284-.257-5.906-.67-1.714-.436-2.34-.928-2.468-1.117.13-.19.755-.68 2.468-1.116.61-.152 1.226-.274 1.847-.365-.356-.594-.696-1.171-1.02-1.732-.598.11-1.16.238-1.677.384-2.328.657-3.509 1.61-3.509 2.83s1.18 2.17 3.51 2.828Z"/><path d="M16.334 25.267a2.361 2.361 0 0 0 2.028-1.138c3.05-4.991 6.687-11.57 6.687-14.562 0-4.806-3.91-8.715-8.715-8.715S7.62 4.762 7.62 9.567c0 2.993 3.637 9.57 6.687 14.562a2.36 2.36 0 0 0 2.028 1.138ZM12.831 8.969a3.506 3.506 0 0 1 3.503-3.503 3.507 3.507 0 0 1 3.503 3.503 3.507 3.507 0 0 1-3.503 3.502 3.507 3.507 0 0 1-3.503-3.502Z"/></g></g></g><defs><clipPath id="a"><path fill="#fff" d="M.333.852h32v32h-32z"/></clipPath><clipPath id="b"><path fill="#fff" d="M.333.852h32v32h-32z"/></clipPath><clipPath id="c"><path fill="#fff" d="M.333-7.148h32v48h-32z"/></clipPath></defs></svg>