<svg xmlns="http://www.w3.org/2000/svg" width="32" height="33" fill="none"><g clip-path="url(#a)"><g clip-path="url(#b)"><g clip-path="url(#c)"><mask id="d" width="32" height="33" x="0" y="0" maskUnits="userSpaceOnUse" style="mask-type:luminance"><path fill="#fff" d="M0 .852h32v32H0v-32Z"/></mask><g fill="#fff" mask="url(#d)"><path d="M27.37 14.279c.04-4.512-3.803-8.647-8.565-9.22a6.956 6.956 0 0 1-.307-.046 4.454 4.454 0 0 0-.726-.08c-.975 0-1.236.687-1.305 1.095-.067.398-.003.732.19.993.322.44.89.517 1.348.58.134.018.26.036.366.06 4.278.955 5.718 2.458 6.422 6.7.017.104.025.23.033.367.031.507.095 1.562 1.23 1.562.094 0 .195-.008.3-.025 1.057-.16 1.024-1.124 1.008-1.588a2.298 2.298 0 0 1 .006-.398Z"/><path d="M17.5 3.405c.126.009.246.018.346.033 7.025 1.08 10.256 4.409 11.15 11.489.016.12.019.267.021.422.009.553.027 1.704 1.263 1.728h.038c.388 0 .696-.117.917-.347.384-.403.358-1 .336-1.48-.005-.12-.01-.23-.009-.327.09-7.24-6.178-13.807-13.413-14.051a.5.5 0 0 0-.088.005.607.607 0 0 1-.085.004c-.072 0-.161-.006-.255-.012a5.327 5.327 0 0 0-.374-.017c-1.152 0-1.37.819-1.399 1.307-.065 1.128 1.028 1.208 1.552 1.246Zm11.156 20.672c-.15-.114-.304-.232-.449-.35-.767-.616-1.583-1.185-2.372-1.735a60.651 60.651 0 0 1-.49-.343c-1.012-.71-1.92-1.055-2.779-1.055-1.156 0-2.165.64-2.997 1.9-.369.558-.816.83-1.367.83-.326 0-.697-.094-1.101-.277-3.263-1.48-5.593-3.748-6.925-6.743-.644-1.447-.435-2.393.698-3.163.644-.437 1.842-1.25 1.757-2.808-.096-1.77-3.999-7.09-5.643-7.695-.696-.256-1.427-.258-2.178-.006-1.89.636-3.246 1.752-3.923 3.227-.653 1.426-.624 3.1.086 4.842 2.05 5.035 4.934 9.425 8.57 13.047 3.56 3.547 7.935 6.45 13.003 8.634.457.197.936.304 1.286.382.12.027.223.05.297.07a.505.505 0 0 0 .127.018h.04c2.384 0 5.247-2.178 6.126-4.662.77-2.174-.637-3.25-1.766-4.113ZM18.547 9.156c-.408.01-1.257.03-1.555.896-.14.404-.123.755.05 1.043.253.423.737.552 1.178.623 1.6.257 2.42 1.14 2.585 2.783.076.766.592 1.3 1.254 1.3.049 0 .099-.003.148-.01.796-.094 1.182-.68 1.147-1.737.013-1.105-.565-2.36-1.548-3.358-.987-1.002-2.177-1.567-3.259-1.54Z"/></g></g></g></g><defs><clipPath id="a"><path fill="#fff" d="M0 .852h32v32H0z"/></clipPath><clipPath id="b"><path fill="#fff" d="M0 .852h32v32H0z"/></clipPath><clipPath id="c"><path fill="#fff" d="M0 .852h32v32H0z"/></clipPath></defs></svg>