<svg xmlns="http://www.w3.org/2000/svg" width="81" height="24" fill="none"><path fill="#000" d="M4.517 12H.897c-.428 0-.643 0-.775.137-.133.137-.128.35-.117.772.01.431.035.86.093 1.288.025.177.037.266.095.311.058.046.163.033.374.01 1.167-.138 2.295.815 2.295 2.066 0 .623-.27 1.183-.696 1.565-.156.14-.234.21-.24.283-.006.073.052.142.164.28.408.496.867.948 1.368 1.347.12.095.18.142.244.14.065-.002.132-.06.265-.18.36-.323.833-.518 1.35-.518 1.11 0 1.997.928 2.044 2.004.007.18.011.268.055.317.043.048.117.06.265.082a9.095 9.095 0 0 0 2.638 0c.148-.023.222-.034.265-.082.044-.049.048-.138.055-.317.047-1.076.935-2.004 2.044-2.004.517 0 .99.195 1.35.517.133.12.2.18.265.181.065.001.125-.045.244-.14.501-.4.96-.852 1.368-1.348.112-.137.17-.206.163-.28-.006-.073-.084-.143-.24-.282a2.1 2.1 0 0 1-.695-1.565c0-1.25 1.128-2.204 2.295-2.067.21.024.316.037.374-.009.058-.045.07-.134.095-.31.058-.429.083-.858.093-1.289.01-.423.016-.635-.117-.772-.132-.137-.347-.137-.775-.137h-3.62c-.207 2.336-2.135 4.167-4.483 4.167S4.724 14.337 4.517 12ZM4 12h10H4Zm5 0V6v6Zm-.259-4.259c.55-1.538.226-3.298-.979-4.503S4.797 1.71 3.26 2.258c-.549 1.54-.226 3.3.98 4.504 1.204 1.205 2.964 1.528 4.502.98m.474 2.042c-.458-1.28-.189-2.748.816-3.753s2.47-1.273 3.752-.815c.458 1.281.19 2.748-.815 3.753-1.004 1.005-2.472 1.273-3.753.815ZM27.438 18.5V5.41h4.794c.929 0 1.698.152 2.307.46.61.302 1.066.713 1.368 1.233a3.38 3.38 0 0 1 .454 1.745c0 .545-.1 1.006-.3 1.38-.2.371-.469.67-.806.896a3.549 3.549 0 0 1-1.1.485v.128c.436.021.86.162 1.273.422.418.256.763.62 1.036 1.093.272.473.409 1.048.409 1.726a3.47 3.47 0 0 1-.473 1.803c-.311.528-.793.948-1.445 1.259-.652.307-1.485.46-2.5.46h-5.017Zm1.975-1.694h2.85c.947 0 1.625-.183 2.034-.55.409-.366.613-.824.613-1.374 0-.413-.104-.793-.313-1.138a2.238 2.238 0 0 0-.895-.824c-.383-.205-.84-.307-1.368-.307h-2.921v4.193Zm0-5.734h2.646a2.72 2.72 0 0 0 1.196-.255c.358-.17.641-.41.85-.716a1.9 1.9 0 0 0 .32-1.1c0-.54-.19-.995-.57-1.361-.379-.367-.96-.55-1.744-.55h-2.698v3.982Zm8.849 7.428V8.682h1.911V18.5h-1.911Zm.965-11.333c-.332 0-.618-.11-.856-.332a1.08 1.08 0 0 1-.352-.806c0-.315.117-.584.352-.805.238-.226.524-.34.856-.34.332 0 .616.114.85.34.239.221.358.49.358.805 0 .311-.12.58-.358.806a1.193 1.193 0 0 1-.85.332Zm6.853 11.531c-.92 0-1.724-.21-2.41-.633a4.266 4.266 0 0 1-1.598-1.77c-.38-.759-.569-1.645-.569-2.66 0-1.018.19-1.908.57-2.671a4.248 4.248 0 0 1 1.597-1.777c.686-.422 1.49-.633 2.41-.633.92 0 1.724.21 2.41.633.686.422 1.218 1.014 1.598 1.777.379.763.569 1.653.569 2.672 0 1.014-.19 1.9-.57 2.659a4.266 4.266 0 0 1-1.597 1.77c-.686.422-1.49.633-2.41.633Zm.006-1.604c.597 0 1.091-.158 1.483-.473.392-.316.682-.735.87-1.26a5.01 5.01 0 0 0 .287-1.732 4.99 4.99 0 0 0-.287-1.726c-.188-.528-.478-.952-.87-1.272-.392-.32-.886-.479-1.483-.479-.6 0-1.1.16-1.495.48-.392.319-.684.743-.876 1.271a5.091 5.091 0 0 0-.281 1.726c0 .63.093 1.208.28 1.732.193.525.485.944.877 1.26.396.315.895.473 1.495.473Zm10.02 5.292c-.78 0-1.45-.102-2.013-.306-.558-.205-1.014-.476-1.368-.812a3.41 3.41 0 0 1-.793-1.106l1.643-.678c.115.188.269.386.46.595.196.213.46.394.793.543.337.15.77.224 1.298.224.724 0 1.323-.177 1.796-.53.473-.35.71-.908.71-1.675v-1.93h-.122a4.362 4.362 0 0 1-.499.696c-.213.256-.507.477-.882.665-.375.187-.863.281-1.464.281-.775 0-1.474-.181-2.096-.543-.618-.367-1.108-.906-1.47-1.617-.358-.716-.537-1.596-.537-2.64 0-1.045.177-1.94.53-2.685.358-.746.848-1.317 1.47-1.713.623-.4 1.328-.601 2.116-.601.61 0 1.102.102 1.477.307.375.2.667.434.875.703.213.268.378.505.493.71h.14V8.681h1.873v10.035c0 .844-.196 1.537-.588 2.078-.392.54-.922.941-1.592 1.201-.664.26-1.414.39-2.25.39Zm-.019-5.618c.55 0 1.014-.128 1.394-.384.383-.26.673-.63.87-1.112.2-.486.3-1.068.3-1.745 0-.66-.099-1.242-.295-1.745-.196-.503-.483-.895-.863-1.176-.379-.286-.848-.428-1.406-.428-.575 0-1.054.149-1.438.447-.383.294-.673.695-.87 1.202a4.777 4.777 0 0 0-.287 1.7c0 .644.098 1.208.294 1.694.196.486.486.865.87 1.138.387.272.864.409 1.431.409Zm9.07 1.95a4.009 4.009 0 0 1-1.688-.346 2.842 2.842 0 0 1-1.195-1.016c-.29-.443-.435-.987-.435-1.63 0-.554.107-1.01.32-1.368.213-.358.5-.641.863-.85a4.508 4.508 0 0 1 1.214-.473c.448-.107.903-.188 1.368-.243l1.432-.166c.366-.047.633-.122.799-.224.166-.102.25-.268.25-.499v-.044c0-.559-.158-.991-.474-1.298-.311-.307-.775-.46-1.393-.46-.644 0-1.15.143-1.522.428-.366.281-.62.595-.76.94l-1.797-.41c.214-.596.525-1.077.934-1.444.413-.37.888-.64 1.425-.805a5.565 5.565 0 0 1 1.694-.256c.392 0 .808.047 1.247.14.443.09.856.256 1.24.5.387.242.705.59.952 1.041.247.447.37 1.03.37 1.745v6.52h-1.866v-1.342h-.076c-.124.247-.31.49-.556.728a2.955 2.955 0 0 1-.953.595c-.388.157-.852.236-1.393.236Zm.415-1.535c.528 0 .98-.104 1.355-.313.38-.209.667-.482.863-.818.2-.341.3-.705.3-1.093v-1.266c-.068.068-.2.132-.396.192a6.178 6.178 0 0 1-.658.147 78.5 78.5 0 0 1-.722.109l-.588.076a4.74 4.74 0 0 0-1.017.237c-.302.11-.545.27-.729.48-.178.204-.268.477-.268.817 0 .473.175.831.524 1.074.35.239.795.358 1.336.358Zm7.684-8.501 2.167 3.822 2.186-3.822h2.09l-3.062 4.909 3.088 4.909h-2.09l-2.212-3.669-2.205 3.669H71.12l3.055-4.91-3.017-4.908h2.097Z"/></svg>