<svg xmlns="http://www.w3.org/2000/svg" width="33" height="33" fill="none"><g clip-path="url(#a)"><g clip-path="url(#b)"><g fill="#fff" clip-path="url(#c)"><path d="m32.385 7.209-9.705 9.643 9.705 9.642c.183-.376.28-.788.282-1.205V8.414c0-.433-.107-.838-.282-1.205Zm-2.532-1.607H3.478a2.78 2.78 0 0 0-1.205.282l12.404 12.34a2.815 2.815 0 0 0 3.977 0l12.404-12.34a2.78 2.78 0 0 0-1.205-.282ZM.949 7.21a2.78 2.78 0 0 0-.282 1.205V25.29c0 .433.106.839.282 1.205l9.705-9.642L.949 7.21Z"/><path d="m21.353 18.176-1.373 1.373a4.693 4.693 0 0 1-6.628 0l-1.374-1.373-9.705 9.643c.367.175.772.282 1.205.282h26.375c.433 0 .839-.107 1.205-.282l-9.705-9.643Z"/></g></g></g><defs><clipPath id="a"><path fill="#fff" d="M.667.852h32v32h-32z"/></clipPath><clipPath id="b"><path fill="#fff" d="M.667.852h32v32h-32z"/></clipPath><clipPath id="c"><path fill="#fff" d="M.667.852h32v32h-32z"/></clipPath></defs></svg>